<svg width="114" height="46" viewBox="0 0 114 46" fill="none" xmlns="http://www.w3.org/2000/svg">
<path opacity="0.8" fill-rule="evenodd" clip-rule="evenodd" d="M57.3887 4.39687C58.1535 4.43137 58.884 4.71316 59.4625 5.19688C60.251 5.9169 60.4577 7.1175 60.0845 8.0781C58.6338 10.9587 55.1838 12.8828 52.8262 13.5194C51.4158 13.8394 49.6328 13.8394 48.3467 13.3594C47.7242 13.7194 47.1989 14.8829 46.4387 14.3994C45.3384 13.5704 46.2909 12.273 45.6557 11.3524C45.5247 11.1628 45.1947 11.1489 45.0289 10.8387C44.1575 8.99813 45.2362 7.23751 46.4387 5.83748C48.4435 3.67975 54.1952 1.27564 57.3887 4.39687ZM50.438 6.77344C49.3617 6.97928 48.1462 7.46315 47.4891 8.25607C46.8314 9.04841 46.4133 9.82105 46.8118 10.6444C48.2068 9.57404 48.8842 8.0914 50.4386 7.18571C50.438 7.02044 50.6771 6.89694 50.438 6.77344ZM57.4832 6.79208C54.4881 6.55657 52.2312 8.59388 50.1045 10.5517C49.9744 10.865 49.1934 11.2174 49.8008 11.5698C52.6658 11.8048 55.3999 11.0614 57.4832 9.3373C58.0913 8.82826 58.5239 8.16259 58.2215 7.45719C58.0913 7.18365 57.7851 6.90955 57.4832 6.79208ZM83.1088 19.8031C84.4464 22.9814 85.5746 27.992 83.1088 31.0481C82.4403 31.7813 81.2704 32.4572 80.5183 31.9035C77.7594 29.7447 76.5901 26.6479 74.8764 23.8769C74.6257 23.7547 74.6257 24.0812 74.5004 24.2034C73.8736 27.0144 75.0435 30.6815 73.0798 32.881C72.3277 33.0032 71.624 32.626 71.3661 31.9035C70.4045 29.0109 71.4066 25.9956 71.6573 23.103C72.2429 21.6361 72.4936 19.9253 73.7895 18.825C75.8792 19.6396 76.882 21.9218 78.0931 23.5924C78.9717 24.8551 79.6814 26.2813 80.6842 27.4218C81.5616 27.0552 81.1299 25.9371 81.1026 25.2624C80.7672 22.6142 80.0151 20.1697 79.3042 17.6438C79.2636 16.992 78.8875 15.8917 79.5966 15.4844C81.4799 16.2996 82.2725 18.214 83.1088 19.8031ZM69.9848 17.68C69.9848 18.3061 69.5028 19.0881 69.1 19.1818C65.2438 19.8073 60.9451 19.432 57.3298 20.683C57.2093 21.1417 57.7314 21.2251 58.0126 21.3502C61.1052 21.8506 64.3602 21.9757 67.3736 22.7686C68.9667 23.1887 69.5436 25.1468 69.6641 26.7731C69.738 28.0555 69.263 29.6093 68.057 30.4856C65.0848 32.4462 60.5452 32.3622 57.5312 30.5697C56.3793 29.8988 55.2815 28.8182 55.2011 27.4832C55.2081 26.4232 55.6435 25.5886 56.3665 25.1891C59.2594 23.9792 62.8345 24.6476 65.3258 26.1899C65.4853 27.0245 64.6157 26.9792 64.1995 27.2747C61.4271 28.9433 59.3386 25.3988 56.7675 26.6903C56.406 26.9405 56.1447 27.6385 56.5667 27.8585C59.7402 29.3186 63.2757 28.2755 66.4091 27.3581C66.7706 27.233 67.2129 26.8577 67.2525 26.4824C67.132 25.1474 65.6861 24.8561 64.7618 24.4808C62.0301 23.7719 59.0172 23.7719 56.0841 23.48C55.5219 23.3549 54.8053 22.9481 54.6383 22.4791C54.3169 21.4783 54.3169 20.1016 55.0399 19.2676C58.7757 15.8469 64.4399 16.1394 69.1804 17.0569C69.5023 17.1795 69.8637 17.3046 69.9848 17.68ZM51.9357 20.0148C52.3358 24.0309 52.5581 27.7554 52.4692 31.9806C52.3803 32.5238 51.7134 32.6499 51.2688 32.859C50.5574 32.9845 49.638 32.8421 49.3564 32.4826C48.3338 30.9337 48.6895 28.8429 48.6006 26.9601C48.734 23.9903 48.6895 20.7683 49.5793 18.0064C49.7494 17.6051 50.2462 17.2535 50.6463 17.5039C51.7134 18.0064 51.8912 19.0109 51.9357 20.0148ZM97.9376 19.1714C98.1382 19.4949 98.3479 19.9946 97.9376 20.2114C96.0607 21.0114 93.5172 20.6514 91.3478 20.8914C90.7641 21.3714 90.3048 22.1715 90.5127 22.892C90.7224 23.012 90.9091 23.1947 91.1394 23.1715C92.473 23.2521 94.4756 22.5715 95.3525 23.7715C95.5664 24.1286 95.3235 25.462 94.727 25.4921C93.0997 25.6933 90.4239 25.2962 89.6377 25.6933C88.637 26.3333 88.7198 27.5733 88.3445 28.5745C89.054 29.0145 89.7966 28.5641 90.6378 28.4539C92.1824 28.2139 93.8925 27.7739 95.4346 28.0939C95.7265 28.6139 96.1441 29.1745 95.8516 29.8145C93.2223 31.8151 89.8311 33.8656 86.218 32.4151C84.862 31.8319 84.2577 29.8545 84.717 28.1751C85.0082 26.9745 86.3008 25.8144 85.5092 24.5338C85.3841 23.9732 85.7183 23.4938 86.2186 23.3738C87.5946 23.3738 87.3021 21.7332 88.0116 20.9726C87.2193 20.1326 85.2179 20.1726 85.4264 18.492C86.386 18.0119 87.5541 18.1719 88.637 18.0119C91.0977 17.5314 93.8502 17.2513 96.3544 17.5314C96.8529 17.6276 97.5206 18.5714 97.9376 19.1714ZM38.2916 9.97381C42.1845 13.1304 47.2351 18.5111 46.6025 24.7043C45.8427 29.6011 40.6119 33.2834 36.1823 34.4554C31.8793 35.7106 26.4797 35.585 22.0917 34.5809C21.7964 35.3765 21.5012 36.3381 20.5734 36.6734C19.9829 36.8826 19.2232 36.7571 18.7593 36.3806C17.4518 35.1667 18.5062 32.8232 16.6077 32.0707C12.8951 30.5221 8.88733 27.4667 6.98947 23.7008C6.73642 22.9477 7.03165 22.1946 7.49557 21.6089C10.4068 19.3072 14.0767 18.3868 17.7471 17.6749C17.9579 17.7586 17.8736 17.4658 18.0423 17.3821C18.2532 14.8712 18.3375 12.3179 19.1388 10.0581C19.3216 9.74097 19.7715 9.63972 20.0673 9.8489C22.3875 11.6061 21.2904 14.9131 22.3032 17.2978C26.7327 17.507 31.1623 17.7162 34.6634 20.1858C35.8449 21.1481 36.1328 22.9859 35.7599 24.0361C35.3877 25.0844 34.1573 25.8357 33.018 25.9181C32.2582 25.9181 30.8243 25.9915 30.9086 25.4167C30.993 24.8413 33.4892 23.8996 32.7227 23.1144C31.6207 21.986 26.1068 21.3148 22.6895 20.8964C22.2677 20.8128 21.8808 20.9383 21.8808 21.3985C21.7964 24.5787 21.5434 28.0937 22.0917 31.1497C22.1338 31.3594 22.3869 31.6105 22.5984 31.6511C28.6306 32.614 35.0008 32.0695 39.7256 28.6382C41.9193 26.8816 42.6369 24.4108 42.2567 21.6913C40.3582 14.1169 32.3853 9.55483 25.8464 6.6256C19.4768 3.86371 12.4312 2.44063 4.88013 2.81778C3.67784 2.90509 1.77265 3.31679 1.75859 3.73881C1.74453 4.16082 3.91683 4.02803 3.65645 4.82658C3.39668 5.62453 1.18893 5.15097 0.534914 4.95209C-0.119099 4.75321 -0.055531 3.82188 0.113168 3.23615C1.75859 0.348755 6.35013 0.115314 8.42402 0.014055C19.898 -0.279414 30.9936 4.05532 38.2916 9.97381ZM18.2425 21.291C15.3706 21.329 12.3328 21.5945 9.66945 22.5051C9.12858 22.6948 8.4623 23.226 8.87835 23.8715C9.96008 25.1994 11.5073 26.2897 12.9569 27.059C14.4064 27.8271 16.3281 28.8048 18.0761 29.033C18.4922 26.5658 18.4922 24.1371 18.4506 21.5945C18.2835 21.5187 18.45 21.3669 18.2425 21.291ZM104.416 16.6559C104.293 20.2094 100.957 22.4158 100.957 25.9692C101.081 26.0917 101.164 26.255 101.328 26.1746C104.005 23.2739 106.639 19.1482 110.55 17.9231C111.58 17.8414 112.511 18.7298 112.897 19.3938C114.256 22.0897 113.927 25.8887 112.033 28.3395C110.078 30.7453 106.68 33.1595 102.812 32.7505C101.207 36.6721 100.093 40.7978 99.4761 45.0869C99.1469 45.9445 98.3655 45.1686 97.8716 45.0052C94.5373 42.391 97.2751 35.4706 97.5012 34.5876C97.7273 33.7069 98.6196 31.6296 99.2721 29.8901C97.7076 27.1132 98.6953 23.7628 99.9712 21.1895C100.959 19.4737 102.319 17.758 103.924 16.4512C104.128 16.4518 104.293 16.4926 104.416 16.6559ZM111.162 20.3295C110.64 20.2453 110.421 20.92 109.987 21.0464C107.984 23.2379 105.98 25.4294 104.978 28.0423C106.329 28.2108 107.46 27.3681 108.637 26.9047C110.64 25.6822 111.903 23.6604 111.772 21.3419C111.685 20.9615 111.336 20.6666 111.162 20.3295Z" fill="#807E7E"/>
</svg>
