<svg width="126" height="32" viewBox="0 0 126 32" fill="none" xmlns="http://www.w3.org/2000/svg">
<path opacity="0.8" fill-rule="evenodd" clip-rule="evenodd" d="M8.49325 3.36389C8.49325 5.22542 10.0064 6.72779 11.8814 6.72779H15.2695V3.36389C15.2695 1.50237 13.7563 0 11.8814 0C10.0064 0 8.49325 1.50237 8.49325 3.36389ZM15.2695 11.7955C15.2695 9.93401 13.7563 8.43164 11.8814 8.43164H3.38813C1.51319 8.43164 0 9.93907 0 11.7955C0 13.652 1.51319 15.1594 3.38813 15.1594H11.8814C13.7563 15.1594 15.2695 13.6571 15.2695 11.7955ZM3.4136 23.5928C5.28854 23.5928 6.80173 22.0904 6.80173 20.2289V16.865H3.4136C1.53867 16.865 0.0254746 18.3724 0.0254746 20.2289C0.0254746 22.0854 1.53867 23.5928 3.4136 23.5928ZM11.8814 16.865C10.0064 16.865 8.49325 18.3674 8.49325 20.2289V28.6361C8.49325 30.4976 10.0064 32 11.8814 32C13.7563 32 15.2695 30.4976 15.2695 28.6361V20.2289C15.2695 18.3674 13.7563 16.865 11.8814 16.865ZM23.7628 11.7964C23.7628 13.6579 22.2496 15.1603 20.3746 15.1603C18.4997 15.1603 16.9865 13.6579 16.9865 11.7964V3.36389C16.9865 1.50237 18.4997 0 20.3746 0C22.2496 0 23.7628 1.50237 23.7628 3.36389V11.7964ZM25.4543 11.7955C25.4543 9.93401 26.9675 8.43164 28.8424 8.43164C30.7173 8.43164 32.2305 9.93401 32.2305 11.7955C32.2305 13.6571 30.7173 15.1594 28.8424 15.1594H25.4543V11.7955ZM16.9865 20.2289C16.9865 22.0904 18.4997 23.5928 20.3746 23.5928H28.8679C30.7428 23.5928 32.256 22.0904 32.256 20.2289C32.256 18.3674 30.7428 16.865 28.8679 16.865H20.3746C18.4997 16.865 16.9865 18.3674 16.9865 20.2289ZM23.7628 28.6351C23.7628 26.7736 22.2496 25.2713 20.3746 25.2713H16.9865V28.6351C16.9865 30.4967 18.4997 31.999 20.3746 31.999C22.2496 31.999 23.7628 30.4967 23.7628 28.6351ZM57.9075 1H63.34V27.6363H57.9075V1ZM41.8923 22.0144L40.32 25.6767C42.5021 27.2528 45.3695 27.9903 48.4939 27.9953C52.7573 27.9953 55.7255 25.5252 55.7255 22.0144C55.664 18.0764 51.9535 17.0773 49.0595 16.2981C47.2056 15.7989 45.6867 15.39 45.6769 14.3564C45.6769 13.5431 46.5638 12.9067 47.9093 12.9067C49.8898 12.9067 51.9711 13.6694 53.6442 14.7403L55.1157 11.0023C53.2864 9.5525 50.7264 8.91602 48.1613 8.91602C43.8476 8.91602 40.8038 11.563 40.829 14.998C40.8753 19.1434 44.592 19.9551 47.4685 20.5832C49.2854 20.98 50.767 21.3036 50.7768 22.3478C50.7768 23.3126 49.7336 23.9491 48.0857 23.9491C45.8533 23.9491 43.5906 23.2874 41.8923 22.0144ZM96.7364 23.0045C98.4397 23.0045 99.9112 22.0649 100.697 20.6909L105.036 23.1156C103.414 26.0404 100.314 28.0004 96.7364 28.0004C91.4803 28.0004 87.217 23.7269 87.217 18.4582C87.217 13.1895 91.4803 8.91602 96.7364 8.91602C100.289 8.91602 103.414 10.9012 105.036 13.8008L100.697 16.2154C99.9112 14.8414 98.4347 13.9018 96.7364 13.9018C94.2268 13.9018 92.1959 15.9375 92.1959 18.4532C92.1959 20.9688 94.2217 23.0045 96.7364 23.0045ZM107.168 27.6363V1H112.595V16.6393L118.738 9.28943H125.39L117.801 18.1446L126 27.6363H119.046L112.6 19.6449V27.6363H107.168ZM80.0249 11.5347V9.38221H85.68V27.6178H80.0249V25.4653C79.0964 26.964 76.7987 28 74.3961 28C69.4282 28 65.52 23.7454 65.52 18.4749C65.52 13.2043 69.4282 9 74.3961 9C76.8039 9 79.1016 10.041 80.0249 11.5347ZM75.6131 23.0312C77.5174 23.0312 79.2066 22.0707 80.0249 20.7782V16.2972C79.2066 14.9796 77.5174 13.9688 75.6131 13.9688C73.0007 13.9688 70.8866 15.9955 70.8866 18.5C70.8866 21.0045 72.9954 23.0312 75.6131 23.0312Z" fill="#807E7E"/>
</svg>
