<svg width="118" height="39" viewBox="0 0 118 39" fill="none" xmlns="http://www.w3.org/2000/svg">
<path opacity="0.8" fill-rule="evenodd" clip-rule="evenodd" d="M15.4393 0H14.3996C11.457 0.176453 8.57328 1.13714 6.1996 2.88206C3.72784 4.64659 1.80535 7.17574 0.804876 10.0382C-0.293687 13.1751 -0.27407 16.7042 0.902962 19.8215C2.15846 23.2133 4.7087 26.0954 7.9063 27.8011C10.5742 29.2519 13.6738 29.8205 16.6752 29.5264C19.7747 29.2715 22.8154 27.9776 25.0125 25.7817C28.3082 22.684 29.3283 17.8021 28.6221 13.4692H14.9096V17.508C17.0804 17.5211 19.2511 17.5167 21.4218 17.5124H21.4225C22.508 17.5102 23.5935 17.508 24.679 17.508C24.4436 19.5078 23.7178 21.5664 22.1484 22.9192C20.1474 24.8406 17.2833 25.6837 14.5369 25.5268C11.5943 25.4288 8.74984 24.0172 6.88621 21.7625C4.9441 19.449 4.10056 16.3121 4.51253 13.332C4.88525 10.3127 6.61156 7.48944 9.1618 5.82294C11.4962 4.23487 14.4977 3.70551 17.2833 4.29368C19.1666 4.64659 20.8929 5.64649 22.3249 6.94047C22.8516 6.39174 23.391 5.8558 23.9323 5.31805L23.9323 5.318L23.9324 5.31795L23.9324 5.3179C24.3387 4.91423 24.7461 4.50953 25.1498 4.09762C22.5996 1.52926 19.0489 0.0784234 15.4393 0ZM97.126 1.51758H93.332C93.332 4.63815 93.334 7.75872 93.336 10.8786C93.3399 17.1161 93.3438 23.3506 93.332 29.5765C94.2766 29.606 95.2312 29.6023 96.1808 29.5986H96.1811H96.1813C96.4969 29.5974 96.812 29.5962 97.126 29.5962V1.51758ZM46.0701 12.4012C43.8627 10.8587 40.9667 10.312 38.2935 10.8002C34.9318 11.3664 31.9548 13.7679 30.9017 16.9114C29.8486 19.8401 30.3144 23.2764 32.2383 25.7756C33.9394 28.0405 36.7342 29.4267 39.6099 29.5829C42.7488 29.7782 45.9688 28.4895 47.9332 26.088C49.7559 23.9403 50.4444 20.9725 49.8976 18.2586C49.4723 15.9156 48.075 13.7679 46.0701 12.4012ZM36.0656 16.2471C36.7946 15.388 37.8072 14.7828 38.9008 14.5094C40.6424 14.0799 42.5663 14.568 43.8826 15.7395C45.928 17.5553 46.3128 20.7573 44.9762 23.0808C44.2067 24.4475 42.8093 25.4823 41.2094 25.7556C39.4881 26.0876 37.6249 25.5213 36.3896 24.3108C34.2227 22.2021 34.1012 18.512 36.0656 16.2471ZM58.7809 10.8017C61.8411 10.2352 65.1851 11.0556 67.4752 13.1261C71.2043 16.349 71.6096 22.3847 68.4277 26.096C66.5024 28.44 63.3814 29.7291 60.3008 29.5924C57.3622 29.5143 54.4641 28.1079 52.7211 25.7835C50.7553 23.2247 50.3297 19.7087 51.4444 16.7202C52.559 13.673 55.4774 11.3486 58.7809 10.8017ZM59.3888 14.5124C58.2944 14.7859 57.2811 15.3914 56.5515 16.2313C54.6059 18.4581 54.687 22.0912 56.7744 24.2203C58.0107 25.4899 59.936 26.115 61.7195 25.7634C63.3003 25.4704 64.7189 24.4547 65.4891 23.0874C66.8064 20.7434 66.4213 17.54 64.3541 15.7234C63.0368 14.5515 61.1115 14.0827 59.3888 14.5124ZM84.3335 11.3648C81.909 10.1276 78.9174 10.5267 76.6688 11.9634C73.951 13.6594 72.1522 16.7922 72.0935 20.0446C71.9762 22.918 73.2276 25.8113 75.3393 27.6869C77.4314 29.5626 80.423 30.5203 83.1408 29.7421C84.3921 29.4428 85.4284 28.6447 86.3279 27.7468C86.3865 29.6025 86.3865 31.6776 85.1742 33.1941C84.0402 34.6707 82.0263 35.1097 80.2861 34.7904C78.5459 34.4712 77.1577 33.0744 76.4733 31.4382C76.014 31.6423 75.5518 31.835 75.0911 32.0271L75.091 32.0272C74.3359 32.342 73.5846 32.6552 72.8561 33.0145C74.0292 35.8679 76.6688 38.1227 79.6995 38.5816C82.5346 39.0206 85.6826 38.3621 87.7356 36.2271C89.6127 34.2916 90.2775 31.4781 90.297 28.8243V11.2251C89.6322 11.2151 88.9724 11.2151 88.3149 11.2151C87.6574 11.2151 87.0024 11.2151 86.3474 11.2051C86.3376 11.4845 86.3376 11.7638 86.3376 12.0407C86.3376 12.3175 86.3376 12.5919 86.3279 12.8613C85.7217 12.2826 85.096 11.704 84.3335 11.3648ZM77.6465 16.3336C78.4091 15.3958 79.5236 14.7174 80.7163 14.5178C82.3392 14.2185 84.0598 14.8371 85.1352 16.0942C86.8754 18.1294 87.0905 21.3021 85.8 23.6367C85.0374 25.0135 83.6101 26.0112 82.0654 26.1708C80.423 26.3504 78.7219 25.632 77.6661 24.3351C75.8086 22.1401 75.8086 18.5684 77.6465 16.3336ZM103.112 12.9421C105.448 10.7558 109.049 10.014 112.047 11.1657C114.888 12.2394 116.699 14.9528 117.613 17.7442C115.503 18.6223 113.396 19.4954 111.29 20.3686L111.288 20.3697C109.181 21.2433 107.073 22.1169 104.961 22.9953C105.545 24.108 106.441 25.1231 107.648 25.533C109.341 26.1382 111.365 25.9234 112.786 24.7912C113.351 24.3618 113.798 23.7957 114.227 23.2491C114.761 23.6099 115.296 23.9658 115.831 24.3216L115.832 24.3228C116.368 24.679 116.903 25.0353 117.438 25.3964C115.92 27.6803 113.37 29.281 110.626 29.5348C107.589 29.9057 104.358 28.7344 102.392 26.3529C99.1611 22.6049 99.4725 16.3192 103.112 12.9421ZM105.195 16.5529C104.533 17.5095 104.261 18.6807 104.28 19.8324C107.103 18.6612 109.925 17.4899 112.747 16.2992C112.28 15.206 111.151 14.5423 110.003 14.3666C108.154 14.0348 106.227 15.0303 105.195 16.5529Z" fill="#807E7E"/>
</svg>
