<svg width="156" height="30" viewBox="0 0 156 30" fill="none" xmlns="http://www.w3.org/2000/svg">
<path opacity="0.8" fill-rule="evenodd" clip-rule="evenodd" d="M9.07013 11.2853L18.1403 5.64263L27.2104 11.2382L18.1403 16.8809L27.1621 22.5705L36.2323 16.9279L27.1621 11.2853L36.2323 5.64263L27.1621 0L18.1403 5.64263L9.07013 0L0 5.64263L9.07013 11.2382L0 16.8809L9.07013 22.5705L18.1403 16.9279L9.07013 11.2853ZM18.092 18.7147L9.02188 24.3574L18.092 30L27.1621 24.3574L18.092 18.7147ZM111.19 21.1125L110.853 23.8339H107.388V4H111.335V11.6107C112.201 9.67343 113.934 8.61255 116.388 8.61255C120.094 8.65867 122.838 11.1033 122.838 16.0387V16.5C122.838 21.4354 120.239 24.2491 116.292 24.2491C113.693 24.203 112.008 23.0498 111.19 21.1125ZM43.2774 5.47656H50.5933C55.262 5.47656 59.1125 8.05959 59.1125 13.9636V15.209C59.1125 21.1592 55.5027 23.8345 50.7377 23.8345H43.2774V5.47656ZM47.3685 8.79705V20.4668H50.4971C53.1443 20.4668 54.9251 18.8063 54.9251 15.1162V14.1476C54.9251 10.4576 53.048 8.79705 50.3527 8.79705H47.3685ZM64.5513 8.98213H61.3265V23.8806H65.3695V17.0541C65.3695 13.9176 66.1877 12.8105 69.5088 12.8105H71.1934V8.84375H70.1826C67.2948 8.84375 65.7064 10.0891 65.0807 12.4415L64.5513 8.98213ZM72.0118 16.7314V16.3162C72.0118 11.3347 75.3328 8.61328 79.8571 8.61328C84.4777 8.61328 87.7025 11.3347 87.7025 16.3162V16.7314C87.7025 21.6207 84.574 24.2498 79.8571 24.2498C74.8515 24.2037 72.0118 21.6207 72.0118 16.7314ZM83.5632 16.3148V16.6838C83.5632 19.359 82.1193 20.8351 79.809 20.8812C77.4987 20.8812 76.0548 19.359 76.0548 16.6838V16.3148C76.0548 13.4089 77.5468 11.8867 79.809 11.8867C82.1193 11.8867 83.5632 13.5472 83.5632 16.3148ZM89.8201 8.98228H93.1892L93.5743 11.7959C94.3925 9.90479 96.1252 8.61328 98.6761 8.61328C102.623 8.61328 105.222 11.3347 105.222 16.3624V16.7775C105.222 21.6668 102.334 24.2498 98.6761 24.2498C96.2215 24.2498 94.5369 23.1889 93.7187 21.4823V29.0007H89.7719L89.8201 8.98228ZM101.131 16.3616V16.6845C101.131 19.452 99.6868 20.8819 97.3766 20.928C95.1144 20.928 93.6705 19.2675 93.6705 16.6384V16.3616C93.6705 13.5941 95.1625 11.9336 97.4247 11.9336C99.5424 11.9336 101.131 13.4096 101.131 16.3616ZM114.992 11.8867C117.158 11.8867 118.699 13.4089 118.699 16.1303V16.4993C118.699 19.4513 117.303 20.8812 114.944 20.8812C112.73 20.8812 111.238 19.2668 111.238 16.4993V16.1764C111.238 13.5934 112.778 11.8867 114.992 11.8867ZM124.571 16.7314V16.3162C124.571 11.3347 127.892 8.61328 132.416 8.61328C137.036 8.61328 140.261 11.3347 140.261 16.3162V16.7314C140.261 21.6207 137.085 24.2498 132.416 24.2498C127.41 24.2037 124.571 21.6207 124.571 16.7314ZM132.416 11.8867C134.726 11.8867 136.17 13.5472 136.17 16.3148V16.6838C136.17 19.359 134.726 20.8351 132.416 20.8812C130.106 20.8812 128.662 19.359 128.662 16.6838V16.3148C128.662 13.4089 130.154 11.8867 132.416 11.8867ZM145.556 16.1319L140.117 8.98242H144.785L147.914 13.4566L151.091 8.98242H155.711L150.176 16.0857L156 23.8348H151.428L147.866 18.8994L144.4 23.8348H139.635L145.556 16.1319Z" fill="#807E7E"/>
</svg>
