<svg width="140" height="42" viewBox="0 0 140 42" fill="none" xmlns="http://www.w3.org/2000/svg">
<path opacity="0.8" fill-rule="evenodd" clip-rule="evenodd" d="M20.9948 0C9.39992 0 0 9.40196 0 20.9996C0 32.5985 9.39992 42 20.9948 42C32.5901 42 41.9895 32.5985 41.9895 20.9996C41.9895 9.4027 32.5906 0.00100306 20.9945 0.00100306L20.9948 0V0ZM30.6228 30.2879C30.2457 30.9066 29.4399 31.1004 28.8234 30.7235C23.8933 27.7096 17.6879 27.0287 10.3798 28.6986C9.67562 28.8601 8.97365 28.4185 8.81321 27.7143C8.652 27.0099 9.09148 26.3078 9.79747 26.1473C17.7949 24.3185 24.655 25.1056 30.1888 28.4879C30.8055 28.8666 31.0011 29.6716 30.6225 30.2884L30.6228 30.2879ZM33.1923 24.5708C32.7174 25.3414 31.7101 25.5832 30.9407 25.11C25.2986 21.6409 16.6952 20.6361 10.0202 22.6628C9.15447 22.9243 8.24016 22.4363 7.97742 21.5719C7.71669 20.706 8.20481 19.7932 9.06899 19.5299C16.6937 17.2159 26.1723 18.3368 32.653 22.3202C33.4227 22.7942 33.6659 23.8022 33.192 24.5711L33.1923 24.5708ZM33.4129 18.6155C26.6454 14.5954 15.4825 14.2258 9.02211 16.187C7.98471 16.5017 6.88763 15.916 6.57324 14.8783C6.25886 13.8401 6.844 12.7435 7.88217 12.4281C15.2983 10.1762 27.6267 10.6113 35.4171 15.2371C36.3502 15.7911 36.6563 16.9965 36.1032 17.9286C35.5517 18.862 34.3433 19.1696 33.4132 18.6155H33.4129ZM57.1198 19.3858C53.4948 18.5212 52.8495 17.9144 52.8495 16.6392C52.8495 15.4345 53.9834 14.6238 55.6697 14.6238C57.3043 14.6238 58.9251 15.2394 60.6244 16.5068C60.6758 16.5452 60.7402 16.5605 60.8036 16.5504C60.8671 16.5409 60.9232 16.506 60.9603 16.4536L62.7303 13.958C62.803 13.8552 62.7832 13.7135 62.6852 13.635C60.6627 12.0118 58.3853 11.2227 55.7234 11.2227C51.8094 11.2227 49.0754 13.5721 49.0754 16.9336C49.0754 20.5384 51.4338 21.8148 55.5093 22.8C58.978 23.5992 59.5634 24.2688 59.5634 25.4657C59.5634 26.792 58.3796 27.6165 56.4745 27.6165C54.3585 27.6165 52.6327 26.9036 50.702 25.2312C50.6541 25.1898 50.5884 25.171 50.5278 25.1745C50.4638 25.1798 50.4054 25.2094 50.3648 25.2583L48.3802 27.6207C48.297 27.7188 48.3075 27.8652 48.4038 27.95C50.6501 29.9559 53.4129 31.0154 56.3943 31.0154C60.6119 31.0154 63.3373 28.7103 63.3373 25.1427C63.3448 22.131 61.5422 20.4634 57.1273 19.3891L57.1198 19.3858ZM72.8791 15.8108C71.051 15.8108 69.5515 16.531 68.3151 18.0067V16.3457C68.3151 16.2145 68.2088 16.1077 68.0779 16.1077H64.832C64.7009 16.1077 64.5948 16.2145 64.5948 16.3457V34.8025C64.5948 34.9337 64.7009 35.0405 64.832 35.0405H68.0779C68.2088 35.0405 68.3151 34.9337 68.3151 34.8025V28.9765C69.5518 30.3647 71.0515 31.0431 72.8791 31.0431C76.2759 31.0431 79.7146 28.4276 79.7146 23.4278C79.7196 18.4268 76.28 15.8105 72.8829 15.8105L72.8791 15.8108ZM75.9402 23.4282C75.9402 25.9742 74.3723 27.7509 72.1272 27.7509C69.9077 27.7509 68.2335 25.8934 68.2335 23.4282C68.2335 20.9631 69.9077 19.1055 72.1272 19.1055C74.3359 19.1052 75.9404 20.9228 75.9404 23.4279L75.9402 23.4282ZM88.5281 15.8105C84.1535 15.8105 80.7264 19.1798 80.7264 23.4819C80.7264 27.7372 84.13 31.0711 88.4744 31.0711C92.8645 31.0711 96.3022 27.7131 96.3022 23.4275C96.3022 19.1567 92.8876 15.811 88.5278 15.811L88.5281 15.8105ZM88.5281 27.7748C86.2013 27.7748 84.4471 25.9049 84.4471 23.4255C84.4471 20.9357 86.1407 19.1289 88.4745 19.1289C90.8163 19.1289 92.5823 20.9989 92.5823 23.4799C92.5823 25.9693 90.8775 27.7748 88.5284 27.7748H88.5281ZM105.644 16.1072H102.072V12.4545C102.072 12.3236 101.966 12.2168 101.835 12.2168H98.5895C98.4582 12.2168 98.3516 12.3236 98.3516 12.4545V16.1072H96.791C96.6604 16.1072 96.5546 16.214 96.5546 16.3452V19.1354C96.5546 19.2663 96.6604 19.3734 96.791 19.3734H98.3516V26.5932C98.3516 29.5109 99.8035 30.9901 102.667 30.9901C103.831 30.9901 104.797 30.7496 105.707 30.2333C105.781 30.1919 105.827 30.1122 105.827 30.0274V27.3703C105.827 27.2883 105.784 27.2108 105.714 27.168C105.644 27.1236 105.556 27.1213 105.483 27.1572C104.858 27.4719 104.253 27.6171 103.578 27.6171C102.536 27.6171 102.072 27.1441 102.072 26.0842V19.3747H105.644C105.775 19.3747 105.88 19.2678 105.88 19.1367V16.3467C105.885 16.2155 105.78 16.1087 105.647 16.1087L105.644 16.1072ZM118.088 16.1225V15.6739C118.088 14.3541 118.594 13.7655 119.729 13.7655C120.406 13.7655 120.949 13.9 121.558 14.1031C121.633 14.1267 121.711 14.1149 121.772 14.07C121.835 14.0251 121.87 13.9531 121.87 13.8769V11.141C121.87 11.0365 121.803 10.9439 121.702 10.9131C121.059 10.7217 120.236 10.5254 119.004 10.5254C116.006 10.5254 114.422 12.2141 114.422 15.407V16.0941H112.862C112.731 16.0941 112.624 16.201 112.624 16.3319V19.1364C112.624 19.2673 112.731 19.3744 112.862 19.3744H114.422V30.5107C114.422 30.6418 114.527 30.7486 114.658 30.7486H117.904C118.035 30.7486 118.142 30.6418 118.142 30.5107V19.3752H121.173L125.815 30.5087C125.288 31.6785 124.77 31.9112 124.062 31.9112C123.49 31.9112 122.888 31.7404 122.272 31.4034C122.214 31.3716 122.146 31.3663 122.083 31.3856C122.021 31.4074 121.969 31.4536 121.943 31.5137L120.843 33.9279C120.79 34.042 120.835 34.1759 120.945 34.2351C122.094 34.8572 123.13 35.1228 124.412 35.1228C126.808 35.1228 128.133 34.0061 129.301 31.0019L134.932 16.4475C134.96 16.3743 134.952 16.2915 134.907 16.2266C134.862 16.1621 134.79 16.1233 134.712 16.1233H131.333C131.231 16.1233 131.141 16.1877 131.108 16.2827L127.646 26.1724L123.855 16.2762C123.82 16.1842 123.732 16.1232 123.633 16.1232H118.088L118.088 16.1225ZM110.873 16.1074H107.628C107.496 16.1074 107.39 16.2143 107.39 16.3454V30.5099C107.39 30.6411 107.496 30.7479 107.628 30.7479H110.873C111.004 30.7479 111.111 30.6411 111.111 30.5099V16.3464C111.111 16.2832 111.086 16.2225 111.042 16.1779C110.997 16.1332 110.936 16.1082 110.873 16.1084L110.873 16.1074ZM109.269 9.658C107.983 9.658 106.94 10.6992 106.94 11.9853C106.94 13.2723 107.983 14.3147 109.269 14.3147C110.554 14.3147 111.597 13.2723 111.597 11.9853C111.597 10.6994 110.554 9.658 109.27 9.658H109.269ZM137.704 20.6616C136.419 20.6616 135.42 19.6297 135.42 18.3766C135.42 17.1235 136.432 16.0798 137.716 16.0798C139 16.0798 140 17.1115 140 18.3636C140 19.6167 138.987 20.6616 137.704 20.6616H137.704ZM137.716 16.3066C136.546 16.3066 135.661 17.237 135.661 18.3762C135.661 19.5149 136.54 20.4327 137.705 20.4327C138.874 20.4327 139.761 19.5032 139.761 18.3632C139.761 17.2244 138.881 16.3066 137.717 16.3066H137.716ZM138.223 18.599L138.869 19.5038H138.324L137.742 18.6738H137.242V19.5038H136.786V17.1055H137.855C138.413 17.1055 138.779 17.3906 138.779 17.8706C138.781 18.2638 138.553 18.504 138.225 18.599H138.223V18.599ZM137.837 17.5156H137.242V18.2742H137.837C138.134 18.2742 138.311 18.129 138.311 17.8945C138.311 17.6478 138.133 17.5156 137.837 17.5156H137.837V17.5156Z" fill="#807E7E"/>
</svg>
