<svg width="36" height="35" viewBox="0 0 36 35" fill="none" xmlns="http://www.w3.org/2000/svg">
<g clip-path="url(#clip0_687_2480)">
<path d="M29.4348 35.0001C29.1433 35.0003 28.8585 34.9132 28.617 34.7499C28.3755 34.5867 28.1885 34.3548 28.08 34.0843L26.8492 31.0028L23.7634 29.7034C23.4987 29.5865 23.2744 29.394 23.1187 29.1501C22.9631 28.9062 22.8829 28.6217 22.8884 28.3324C22.8938 28.0431 22.9846 27.7618 23.1494 27.5239C23.3141 27.2861 23.5455 27.1021 23.8144 26.9953L26.8594 25.8418L28.08 22.7909C28.1923 22.5243 28.3807 22.2968 28.6217 22.1368C28.8627 21.9767 29.1455 21.8914 29.4348 21.8914C29.7241 21.8914 30.0069 21.9767 30.2479 22.1368C30.4889 22.2968 30.6774 22.5243 30.7896 22.7909L32.0161 25.8534L35.0786 27.0799C35.3457 27.1916 35.5739 27.3799 35.7343 27.6209C35.8948 27.862 35.9804 28.1451 35.9804 28.4347C35.9804 28.7243 35.8948 29.0074 35.7343 29.2484C35.5739 29.4895 35.3457 29.6777 35.0786 29.7895L32.0161 31.0159L30.7896 34.0784C30.6821 34.3501 30.4955 34.5832 30.2539 34.7475C30.0123 34.9119 29.727 34.9999 29.4348 35.0001ZM15.5807 30.6251C14.9506 30.6327 14.3351 30.436 13.8261 30.0646C13.3172 29.6931 12.9422 29.1668 12.7573 28.5645L10.4036 21.2043L3.02003 18.7338C2.4241 18.5347 1.90691 18.1512 1.54316 17.6389C1.17941 17.1265 0.987921 16.5118 0.996361 15.8835C1.0048 15.2553 1.21273 14.6459 1.59011 14.1435C1.9675 13.6412 2.4948 13.2717 3.09586 13.0886L10.4211 10.8516L12.8886 3.48113C13.072 2.87574 13.4515 2.3485 13.9674 1.98234C14.4832 1.61618 15.1061 1.43188 15.7382 1.45842C16.3683 1.45928 16.9812 1.66419 17.4852 2.04249C17.9891 2.42078 18.357 2.95212 18.5338 3.55697L20.7679 10.8705L28.1034 13.2184C28.695 13.4169 29.2094 13.7962 29.5738 14.3028C29.9382 14.8094 30.1343 15.4177 30.1343 16.0418C30.1343 16.6658 29.9382 17.2741 29.5738 17.7807C29.2094 18.2873 28.695 18.6666 28.1034 18.8651L20.7548 21.2159L18.404 28.5645C18.2191 29.1668 17.8441 29.6931 17.3352 30.0646C16.8262 30.436 16.2107 30.6327 15.5807 30.6251ZM15.744 4.40863L12.9557 12.4893C12.8821 12.7098 12.757 12.9096 12.5905 13.072C12.4241 13.2343 12.2213 13.3545 11.999 13.4226L3.94753 15.8784L12.0282 18.6741C12.2456 18.7465 12.4428 18.8691 12.604 19.0321C12.7651 19.195 12.8856 19.3936 12.9557 19.6118L15.5369 27.6763L18.2057 19.6118C18.2764 19.3903 18.3991 19.189 18.5635 19.0246C18.7279 18.8603 18.9292 18.7375 19.1507 18.6668L27.2152 16.087C27.2256 16.0841 27.2354 16.0797 27.2444 16.0738L19.1507 13.4168C18.926 13.3449 18.7222 13.2197 18.5566 13.0518C18.391 12.8839 18.2686 12.6784 18.1998 12.4528L15.744 4.40863ZM30.8932 10.2084C30.5681 10.2084 30.2523 10.0998 29.996 9.89976C29.7397 9.69975 29.5576 9.41983 29.4786 9.10447L28.9579 7.01905L26.8682 6.45759C26.5541 6.3732 26.2772 6.18624 26.0816 5.92642C25.8859 5.6666 25.7827 5.34884 25.7884 5.02365C25.7941 4.69846 25.9084 4.38451 26.113 4.13171C26.3176 3.87891 26.6009 3.70176 26.9177 3.62842L28.9594 3.15447L29.4786 1.10405C29.5576 0.788718 29.7397 0.508833 29.996 0.308848C30.2523 0.108863 30.5681 0.000244141 30.8932 0.000244141C31.2182 0.000244141 31.534 0.108863 31.7903 0.308848C32.0466 0.508833 32.2287 0.788718 32.3077 1.10405L32.824 3.17197L34.8919 3.68967C35.2072 3.7687 35.4871 3.95083 35.6871 4.20712C35.8871 4.46341 35.9957 4.77917 35.9957 5.10426C35.9957 5.42934 35.8871 5.74511 35.6871 6.0014C35.4871 6.25769 35.2072 6.43981 34.8919 6.51884L32.824 7.03655L32.3077 9.10447C32.2287 9.41983 32.0466 9.69975 31.7903 9.89976C31.534 10.0998 31.2183 10.2084 30.8932 10.2084Z" fill="black"/>
</g>
<defs>
<clipPath id="clip0_687_2480">
<rect width="35" height="35" fill="white" transform="translate(0.998047)"/>
</clipPath>
</defs>
</svg>
