<svg width="35" height="35" viewBox="0 0 35 35" fill="none" xmlns="http://www.w3.org/2000/svg">
<g clip-path="url(#clip0_687_2487)">
<path d="M13.1243 24.7917V27.7083C13.1243 28.5133 12.471 29.1667 11.666 29.1667C10.861 29.1667 10.2077 28.5133 10.2077 27.7083V24.7917C10.2077 23.9867 10.861 23.3333 11.666 23.3333C12.471 23.3333 13.1243 23.9867 13.1243 24.7917ZM23.3327 20.4167C22.5262 20.4167 21.8743 21.07 21.8743 21.875V27.7083C21.8743 28.5133 22.5262 29.1667 23.3327 29.1667C24.1391 29.1667 24.791 28.5133 24.791 27.7083V21.875C24.791 21.07 24.1391 20.4167 23.3327 20.4167ZM17.4993 16.0417C16.6943 16.0417 16.041 16.695 16.041 17.5V27.7083C16.041 28.5133 16.6943 29.1667 17.4993 29.1667C18.3043 29.1667 18.9577 28.5133 18.9577 27.7083V17.5C18.9577 16.695 18.3043 16.0417 17.4993 16.0417ZM32.0827 15.2906V27.7083C32.0827 31.729 28.8116 35 24.791 35H10.2077C6.18706 35 2.91602 31.729 2.91602 27.7083V7.29167C2.91602 3.27104 6.18706 0 10.2077 0H16.7921C19.5177 0 22.0814 1.06167 24.0108 2.98958L29.0916 8.07333C31.0196 9.99979 32.0827 12.5635 32.0827 15.2921V15.2906ZM21.9487 5.05167C21.485 4.58792 20.9702 4.19562 20.416 3.87771V10.2083C20.416 11.0119 21.0693 11.6667 21.8743 11.6667H28.205C27.8871 11.114 27.4933 10.5992 27.031 10.1354L21.9502 5.05167H21.9487ZM29.166 15.2906C29.166 15.0529 29.1543 14.8167 29.1325 14.5833H21.8743C19.4623 14.5833 17.4993 12.6204 17.4993 10.2083V2.95021C17.266 2.92833 17.0298 2.91667 16.7921 2.91667H10.2077C7.7956 2.91667 5.83268 4.87958 5.83268 7.29167V27.7083C5.83268 30.1204 7.7956 32.0833 10.2077 32.0833H24.791C27.2031 32.0833 29.166 30.1204 29.166 27.7083V15.2906Z" fill="white"/>
</g>
<defs>
<clipPath id="clip0_687_2487">
<rect width="35" height="35" fill="white"/>
</clipPath>
</defs>
</svg>
