<svg width="18" height="18" viewBox="0 0 18 18" fill="none" xmlns="http://www.w3.org/2000/svg">
<path d="M8.99323 1.91594e-05C13.964 -0.0101264 17.991 4.01034 18 8.99295C18.009 13.9643 13.9905 17.9893 9.00733 18C4.03828 18.0107 0.00846983 13.9863 1.33204e-05 9.00648C-0.00844319 4.03514 4.01066 0.0101647 8.99323 1.91594e-05ZM10.3638 9.89704C10.3705 9.91338 10.3773 9.92973 10.3846 9.94607C10.0221 10.3085 9.65791 10.6681 9.29823 11.0333C8.91318 11.4239 8.90077 11.9662 9.26271 12.3331C9.62071 12.6955 10.1811 12.691 10.5639 12.3106C11.4467 11.433 12.3262 10.5526 13.2034 9.66932C13.6099 9.26012 13.6071 8.7365 13.1972 8.32447C12.3245 7.44688 11.4496 6.57154 10.5723 5.69846C10.1862 5.31405 9.63367 5.30109 9.27117 5.65844C8.89852 6.02593 8.91036 6.57436 9.30387 6.97342C9.62465 7.29864 9.95051 7.61992 10.2724 7.94401C10.3119 7.98403 10.3446 8.03081 10.4043 8.10352H10.1298C8.611 8.10352 7.09165 8.10352 5.57286 8.10352C5.48829 8.10352 5.40373 8.1024 5.31972 8.1086C4.80219 8.14523 4.42446 8.62828 4.51185 9.14006C4.5919 9.60789 4.94313 9.89535 5.45446 9.89591C7.01554 9.89873 8.57661 9.89704 10.1377 9.89704C10.2127 9.89704 10.2882 9.89704 10.3632 9.89704H10.3638Z" fill="white"/>
</svg>
