<svg width="20" height="20" viewBox="0 0 20 20" fill="currentColor" xmlns="http://www.w3.org/2000/svg">
<path d="M12.5012 5.83241L7.08455 11.2491C6.75303 11.5806 6.56678 12.0302 6.56678 12.4991C6.56678 12.9679 6.75303 13.4176 7.08455 13.7491C7.41607 14.0806 7.86571 14.2668 8.33455 14.2668C8.80339 14.2668 9.25303 14.0806 9.58455 13.7491L15.0012 8.33241C15.6643 7.66937 16.0368 6.77009 16.0368 5.83241C16.0368 4.89473 15.6643 3.99545 15.0012 3.33241C14.3382 2.66937 13.4389 2.29688 12.5012 2.29688C11.5635 2.29687 10.6643 2.66937 10.0012 3.33241L4.58455 8.74908C3.58999 9.74364 3.03125 11.0926 3.03125 12.4991C3.03125 13.9056 3.58999 15.2545 4.58455 16.2491C5.57911 17.2436 6.92803 17.8024 8.33455 17.8024C9.74107 17.8024 11.09 17.2436 12.0846 16.2491L17.5012 10.8324" stroke="currentColor" stroke-width="2" stroke-linecap="round" stroke-linejoin="round"/>
</svg>
