<svg width="20" height="20" viewBox="0 0 20 20" fill="none" xmlns="http://www.w3.org/2000/svg">
<g clip-path="url(#clip0_250_6701)">
<path d="M15 11.4536C14.861 14.3814 13.5603 16.5597 10.9312 17.8649C10.194 18.2308 9.39636 17.8205 9.23244 17.0296C9.12566 16.5152 9.3958 15.9884 9.90835 15.744C10.8228 15.3081 11.5336 14.6477 12.0429 13.7666C13.0444 12.0338 12.8156 9.84292 11.4798 8.30534C11.0366 7.79516 10.5069 7.40676 9.89615 7.12551C9.19361 6.80236 8.98061 5.9634 9.43325 5.33228C9.74832 4.89269 10.3563 4.73857 10.876 4.9751C11.672 5.33763 12.3821 5.82868 12.9897 6.46571C14.0415 7.5682 14.7021 8.87065 14.9193 10.3947C14.9689 10.7426 14.9953 11.0931 15 11.4539L15 11.4536Z" fill="#0070F0"/>
<rect x="6" y="12.8203" width="3" height="3" rx="1.5" transform="rotate(-90 6 12.8203)" fill="#0070F0"/>
</g>
<defs>
<clipPath id="clip0_250_6701">
<rect width="20" height="20" fill="white"/>
</clipPath>
</defs>
</svg>
