<svg id="logo" xmlns="http://www.w3.org/2000/svg" width="141" height="49" viewBox="0 0 141 49">
  <g id="black" data-name="Group 12371">
    <path id="Path_14236" data-name="Path 14236" d="M0,24.717C.391,16.478,4.051,10.348,11.45,6.675a3.314,3.314,0,1,1,2.878,5.968,13.509,13.509,0,0,0-6.007,5.565A13.294,13.294,0,0,0,9.906,33.576a13.048,13.048,0,0,0,4.457,3.32A3.325,3.325,0,1,1,11.6,42.947a19.028,19.028,0,0,1-5.948-4.195A19.717,19.717,0,0,1,.227,27.7,23.143,23.143,0,0,1,0,24.716Z" fill="#fff"/>
    <path id="Path_14238" data-name="Path 14238" d="M23.036,39.786a3.18,3.18,0,0,1,1.789-2.795,17.082,17.082,0,0,0,4.3-2.958,3.2,3.2,0,0,1,4.561.176,3.339,3.339,0,0,1-.024,4.6A18.435,18.435,0,0,1,27.62,43a3.324,3.324,0,0,1-4.584-3.214Z" fill="#fff"/>
    <path id="Path_14239" data-name="Path 14239" d="M26.419,6.251a3.028,3.028,0,0,1,1.352.329,21.778,21.778,0,0,1,5.753,4.091,3.158,3.158,0,0,1,.92,3.319,3.1,3.1,0,0,1-2.309,2.245,3.148,3.148,0,0,1-3.117-.773,15.289,15.289,0,0,0-4.11-2.893,3.292,3.292,0,0,1-1.745-3.7A3.353,3.353,0,0,1,26.419,6.25Z" fill="#fff"/>
  </g>
  <g id="primary" data-name="Group 12372">
    <path id="Path_14237" data-name="Path 14237" d="M45.6,0h1.94V48.953a3.962,3.962,0,0,1-.947.036c-.322.012-.646,0-.994,0Z" fill="#fff"/>
    <path id="Path_14240" data-name="Path 14240" d="M121.8,17.691A3.272,3.272,0,0,0,124.78,21.2a3.642,3.642,0,0,0,3.256-1.026c.161-.175.94.1,1,.337.035.142-.083.214-.155.3a3.829,3.829,0,0,1-2.213,1.31,5.212,5.212,0,0,1-3.956-.557,4.618,4.618,0,0,1-2.039-4.492,4.79,4.79,0,0,1,.8-2.642,4.158,4.158,0,0,1,2.727-1.746A4.855,4.855,0,0,1,128.876,14a4.754,4.754,0,0,1,1.166,3.419.214.214,0,0,1-.234.247c-.2,0-.391.009-.585.009l-6.984,0c-.14,0-.281.012-.443.019Zm.045-1.015h7.037a3.548,3.548,0,0,0-7.037,0Z" fill="#fff"/>
    <path id="Path_14241" data-name="Path 14241" d="M76.837,22.262a4.324,4.324,0,0,1-4.331-3.989,5.262,5.262,0,0,1,.885-4.013,4.688,4.688,0,0,1,4.595-1.625,3.964,3.964,0,0,1,3.189,2.079,5.463,5.463,0,0,1-.066,5.5c-.867,1.493-2.31,2.036-4.272,2.043Zm.642-1.026a3.23,3.23,0,0,0,2.188-.9,3.556,3.556,0,0,0,1.042-2.321,4.13,4.13,0,0,0-.852-3.3,3.714,3.714,0,0,0-3.874-.969,2.834,2.834,0,0,0-1.459.858,4.065,4.065,0,0,0-.969,3.109C73.623,19.9,75.018,21.259,77.479,21.236Z" fill="#fff"/>
    <path id="Path_14242" data-name="Path 14242" d="M99.08,22.263a3.765,3.765,0,0,1-2.935-1.111,2.466,2.466,0,0,1-.34-.477c-.291-.53-.257-.6.306-.819a.324.324,0,0,1,.462.132,2.858,2.858,0,0,0,2.943,1.262A3.688,3.688,0,0,0,100.573,21a1.428,1.428,0,0,0,1.028-1.5,1.45,1.45,0,0,0-1.155-1.232c-.992-.26-2-.461-2.984-.747a2.189,2.189,0,0,1-1.88-2.072,2.424,2.424,0,0,1,1.64-2.474,4.593,4.593,0,0,1,4.308.235,2.8,2.8,0,0,1,1.031,1.209c.116.239.043.36-.179.459-.524.233-.539.238-.874-.255a2.181,2.181,0,0,0-1.285-.9,4.163,4.163,0,0,0-2.493.126,1.516,1.516,0,0,0-.852.713,1.238,1.238,0,0,0,.637,1.869,11.957,11.957,0,0,0,2.22.576,6.027,6.027,0,0,1,1.891.708,2.069,2.069,0,0,1,1.076,1.963,2.274,2.274,0,0,1-1.218,2.018,4.863,4.863,0,0,1-2.4.567Z" fill="#fff"/>
    <path id="Path_14243" data-name="Path 14243" d="M66.065,22.262a4.379,4.379,0,0,1-4.346-2.8c-.66-1.728-.482-4.267,1.008-5.628a4.926,4.926,0,0,1,5.032-1,3.935,3.935,0,0,1,2.537,2.222c.135.292.073.445-.226.526-.125.034-.242.1-.367.133a.267.267,0,0,1-.358-.146c-.7-1.607-2.025-2.032-3.6-1.967a3.17,3.17,0,0,0-3.016,2.164,5.274,5.274,0,0,0-.059,3.076,3.094,3.094,0,0,0,1.577,1.99,3.839,3.839,0,0,0,5-1.326c.118-.187.224-.229.408-.139a1.839,1.839,0,0,0,.325.135c.308.081.314.255.178.5a4.259,4.259,0,0,1-3.433,2.225c-.232.028-.467.024-.656.032Z" fill="#fff"/>
    <path id="Path_14244" data-name="Path 14244" d="M92.861,19.041c0,.831-.017,1.662.009,2.492.012.375-.117.509-.47.458a1.007,1.007,0,0,0-.234,0c-.3.027-.4-.108-.4-.418.006-1.649.02-3.3-.023-4.944a3.043,3.043,0,0,0-1.028-2.308,3.392,3.392,0,0,0-4.693.449,3.985,3.985,0,0,0-.633,2.365c-.005,1.463,0,2.928,0,4.391,0,.465,0,.458-.578.469-.322.006-.532-.014-.524-.457.027-1.529-.015-3.06.015-4.589A4.374,4.374,0,0,1,85.741,13.5c1.561-1.339,5.1-1.419,6.485.946a5.367,5.367,0,0,1,.635,2.813q0,.89,0,1.78Z" fill="#fff"/>
    <path id="Path_14245" data-name="Path 14245" d="M112.869,15.808c0-.844-.01-1.687,0-2.531.007-.443.025-.425.7-.433.352,0,.4.165.4.463-.019,1.648.038,3.3-.046,4.943a3.982,3.982,0,0,1-4.478,4.009,3.923,3.923,0,0,1-3.526-2.074,4.5,4.5,0,0,1-.512-2.128c-.021-1.582-.011-3.164-.009-4.746,0-.461.009-.445.62-.465.35-.012.478.094.474.469-.017,1.529-.022,3.059,0,4.588a3.365,3.365,0,0,0,1.128,2.71,2.542,2.542,0,0,0,.854.434,3.2,3.2,0,0,0,4.078-1.56,4.733,4.733,0,0,0,.309-1.818c0-.62,0-1.239,0-1.859h.007Z" fill="#fff"/>
    <path id="Path_14246" data-name="Path 14246" d="M116.878,13.988c0-2.519.012-5.038-.011-7.557,0-.472.252-.432.544-.429s.569-.055.567.442c-.018,5.025-.01,10.05-.015,15.075,0,.155.089.389-.145.435a1.322,1.322,0,0,1-.875-.04c-.128-.065-.064-.242-.064-.369q0-3.779,0-7.557Z" fill="#fff"/>
    <path id="Path_14247" data-name="Path 14247" d="M110.745,38.514a4.519,4.519,0,0,1,1.766-3.823,4.35,4.35,0,0,1,2.351-.831,4.688,4.688,0,0,1,4.009,1.314,5.017,5.017,0,0,1,1.2,4.328,4.127,4.127,0,0,1-3.159,3.823,4.706,4.706,0,0,1-5.688-2.238A5.669,5.669,0,0,1,110.745,38.514Zm1.1.133c.011.237.016.475.034.711a3.257,3.257,0,0,0,2.539,3.028,3.6,3.6,0,0,0,3.927-1.244,3.8,3.8,0,0,0,.69-2.267,3.615,3.615,0,0,0-1.7-3.569,4,4,0,0,0-3.4-.2,2.943,2.943,0,0,0-1.836,1.909,4.738,4.738,0,0,0-.259,1.63Z" fill="#fff"/>
    <path id="Path_14248" data-name="Path 14248" d="M71.208,38.907a4.77,4.77,0,0,1,1.78-4.2c1.793-1.344,5.425-1.3,6.938,1.213.957,1.589,1.061,5.063-.936,6.59a5.086,5.086,0,0,1-4.578.814,4.005,4.005,0,0,1-2.739-2.272,4.93,4.93,0,0,1-.465-2.142Zm4.556-4.051a3.209,3.209,0,0,0-2.459.97,4.2,4.2,0,0,0-.936,3.646,3.132,3.132,0,0,0,2.8,2.965,3.49,3.49,0,0,0,3.689-1.369,4.258,4.258,0,0,0,.634-2.637,3.41,3.41,0,0,0-3.728-3.575Z" fill="#fff"/>
    <path id="Path_14249" data-name="Path 14249" d="M65.115,43.52a3.874,3.874,0,0,1-2.8-.975,2.539,2.539,0,0,1-.438-.55c-.329-.556-.27-.7.326-.9a.3.3,0,0,1,.4.137,3.016,3.016,0,0,0,3.333,1.214,2.8,2.8,0,0,0,.89-.276,1.407,1.407,0,0,0,.834-1.358,1.319,1.319,0,0,0-.973-1.205,14.529,14.529,0,0,0-2.377-.6,5.841,5.841,0,0,1-1.71-.624,2.249,2.249,0,0,1-.66-3.026,3.038,3.038,0,0,1,2.2-1.4,4.486,4.486,0,0,1,3.345.462,3,3,0,0,1,1.138,1.311.241.241,0,0,1-.144.378c-.629.218-.583.345-.936-.227a2.106,2.106,0,0,0-1.513-.953,4.084,4.084,0,0,0-2.408.252,1.522,1.522,0,0,0-.894,1.49,1,1,0,0,0,.549.888,8.809,8.809,0,0,0,2.238.657,7.056,7.056,0,0,1,2.124.745,2.072,2.072,0,0,1,1.115,1.905,2.3,2.3,0,0,1-1.234,2.1,4.986,4.986,0,0,1-2.407.563Z" fill="#fff"/>
    <path id="Path_14250" data-name="Path 14250" d="M137.366,43.523a3.88,3.88,0,0,1-2.823-.995,2.311,2.311,0,0,1-.416-.518c-.291-.5-.26-.6.24-.875a.32.32,0,0,1,.494.108,3,3,0,0,0,3.3,1.207,3.4,3.4,0,0,0,.529-.132,1.5,1.5,0,0,0,1.216-1.488,1.574,1.574,0,0,0-1.314-1.36c-1-.281-2.041-.4-3.024-.749a2.151,2.151,0,0,1-1.67-1.811,2.317,2.317,0,0,1,1.292-2.521,4.583,4.583,0,0,1,4.719.134,2.7,2.7,0,0,1,.934,1.141c.112.225.072.362-.16.468-.519.237-.538.244-.869-.233a2.2,2.2,0,0,0-1.374-.935,3.976,3.976,0,0,0-2.628.241,1.517,1.517,0,0,0-.816,1.641,1.031,1.031,0,0,0,.622.753,8.758,8.758,0,0,0,2.168.616,7,7,0,0,1,2.121.754,2.291,2.291,0,0,1,0,3.9A5,5,0,0,1,137.366,43.523Z" fill="#fff"/>
    <path id="Path_14251" data-name="Path 14251" d="M94.761,37.045c0-.817.01-1.635,0-2.453-.006-.362.1-.553.489-.491a1.165,1.165,0,0,0,.272,0c.228-.018.341.075.336.316-.034,1.845.119,3.7-.077,5.534a3.816,3.816,0,0,1-3.628,3.538,4.544,4.544,0,0,1-3.169-.71,3.991,3.991,0,0,1-1.666-3.322c-.049-1.66-.014-3.322-.025-4.984,0-.266.076-.4.355-.373a1.368,1.368,0,0,0,.311,0c.329-.042.429.108.427.431-.011,1.5-.008,3.007,0,4.51a3.912,3.912,0,0,0,.546,2.15,3.236,3.236,0,0,0,3.539,1.2,2.9,2.9,0,0,0,2.246-2.743c.051-.867.009-1.74.009-2.609h.038Z" fill="#fff"/>
    <path id="Path_14252" data-name="Path 14252" d="M131.152,40.375c0,.817-.011,1.634.005,2.451.007.327-.1.441-.428.435-.669-.01-.66,0-.668-.662-.021-1.62.085-3.244-.051-4.86a3.154,3.154,0,0,0-6.289.041c-.124,1.67-.048,3.345-.043,5.018,0,.475-.238.458-.559.459s-.559.009-.546-.437c.053-1.738-.08-3.481.068-5.216a3.9,3.9,0,0,1,3.916-3.77,4.209,4.209,0,0,1,3.589,1.364,4.3,4.3,0,0,1,.985,2.8c.024.79,0,1.581,0,2.372h.017Z" fill="#fff"/>
    <path id="Path_14253" data-name="Path 14253" d="M101.745,34.107c.738,0,1.466.023,2.192-.01.4-.017.44.177.446.5.007.347-.085.5-.463.486-.61-.029-1.223.01-1.833-.015-.325-.013-.428.1-.427.424.01,2.439,0,4.878.014,7.318,0,.327-.068.477-.4.438a1.518,1.518,0,0,0-.311,0c-.316.031-.392-.122-.391-.423.012-1.952.007-3.9.008-5.854,0-.514-.01-1.029,0-1.542.006-.273-.092-.368-.365-.361-.65.017-1.3-.015-1.95.012-.436.017-.4-.256-.409-.541-.013-.314.087-.45.424-.439.74.023,1.481.007,2.2.007.129-.145.087-.3.088-.436.006-1,.019-2,0-3.006-.007-.332.1-.465.416-.436a2.478,2.478,0,0,0,.35,0c.259-.015.333.114.33.362-.009.988,0,1.978,0,2.966a1.008,1.008,0,0,0,.078.546Z" fill="#fff"/>
    <path id="Path_14254" data-name="Path 14254" d="M83.279,35.205q0-3.755,0-7.511c0-.142-.085-.377.119-.408a1.34,1.34,0,0,1,.908.047c.134.079.066.3.066.449q0,3.3,0,6.6,0,4.17,0,8.341c0,.173.09.427-.13.491a1.309,1.309,0,0,1-.877-.021c-.153-.066-.094-.286-.094-.439q0-2.609,0-5.218V35.2Z" fill="#fff"/>
    <path id="Path_14255" data-name="Path 14255" d="M107.88,38.691c0,1.385-.008,2.769.006,4.154,0,.32-.109.435-.408.406a2.176,2.176,0,0,0-.351,0c-.227.015-.334-.075-.334-.317q.006-4.254,0-8.506c0-.237.088-.316.323-.323.763-.022.764-.032.764.751v3.838h0Z" fill="#fff"/>
    <path id="Path_14256" data-name="Path 14256" d="M108.281,31.184a.923.923,0,0,1-.965.958.868.868,0,0,1-.916-.942.933.933,0,0,1,.953-.97.923.923,0,0,1,.929.953Z" fill="#fff"/>
  </g>
</svg>
