<svg width="24" height="20" viewBox="0 0 24 20" fill="none" xmlns="http://www.w3.org/2000/svg">
<path fill-rule="evenodd" clip-rule="evenodd" d="M0 1C0 0.447715 0.447715 0 1 0H23C23.5523 0 24 0.447715 24 1C24 1.55228 23.5523 2 23 2H1C0.447716 2 0 1.55228 0 1ZM0 10C0 9.44771 0.447715 9 1 9H23C23.5523 9 24 9.44771 24 10C24 10.5523 23.5523 11 23 11H1C0.447716 11 0 10.5523 0 10ZM1 18C0.447715 18 0 18.4477 0 19C0 19.5523 0.447716 20 1 20H23C23.5523 20 24 19.5523 24 19C24 18.4477 23.5523 18 23 18H1Z" fill="white"/>
</svg>
