<svg width="577" height="543" viewBox="0 0 577 543" fill="none" xmlns="http://www.w3.org/2000/svg">
<g filter="url(#filter0_d_129_6138)">
<circle cx="288.948" cy="271.5" r="216.652" stroke="#1697D2" stroke-linecap="round" stroke-dasharray="2 12"/>
<circle cx="288.95" cy="271.5" r="163.997" stroke="#1697D2" stroke-linecap="round" stroke-dasharray="2 12"/>
<circle cx="288.952" cy="271.5" r="111.342" stroke="#1697D2" stroke-linecap="round" stroke-dasharray="2 12"/>
<rect x="222.586" y="243.527" width="131.636" height="57.0424" rx="28.5212" fill="#010101"/>
<path d="M240.867 272.559C241.131 267.026 243.599 262.909 248.587 260.442C249.986 259.751 251.5 260.526 251.811 262.021C252.013 262.993 251.501 263.989 250.528 264.45C248.793 265.274 247.444 266.522 246.478 268.188C244.578 271.463 245.012 275.603 247.546 278.509C248.387 279.473 249.392 280.208 250.551 280.739C251.884 281.35 252.288 282.935 251.43 284.128C250.832 284.959 249.678 285.25 248.692 284.803C247.182 284.118 245.834 283.19 244.681 281.986C242.686 279.902 241.432 277.441 241.02 274.56C240.926 273.903 240.876 273.241 240.867 272.559V272.559Z" fill="white"/>
<path d="M271.609 255.96H272.918V288.837C272.712 288.895 272.494 288.854 272.279 288.862C272.062 288.87 271.844 288.863 271.609 288.863V255.96Z" fill="white"/>
<path d="M256.399 282.68C256.448 281.917 256.794 281.203 257.605 280.803C258.667 280.28 259.638 279.64 260.502 278.817C261.382 277.979 262.738 278.056 263.578 278.935C264.395 279.79 264.4 281.159 263.561 282.028C262.392 283.238 261.029 284.18 259.49 284.84C258.025 285.468 256.405 284.384 256.398 282.681L256.399 282.68Z" fill="white"/>
<path d="M258.682 260.158C259.004 260.156 259.307 260.24 259.594 260.379C261.036 261.079 262.326 262.003 263.473 263.126C264.101 263.742 264.35 264.494 264.093 265.355C263.86 266.14 263.328 266.666 262.537 266.863C261.759 267.056 261.032 266.917 260.435 266.343C259.611 265.549 258.702 264.889 257.664 264.4C256.737 263.965 256.255 262.896 256.487 261.916C256.732 260.881 257.643 260.151 258.682 260.157V260.158Z" fill="white"/>
<path d="M322.992 267.841C322.932 269.091 323.795 270.089 325.003 270.2C325.828 270.277 326.594 270.162 327.198 269.511C327.307 269.393 327.833 269.579 327.871 269.737C327.895 269.833 327.815 269.881 327.766 269.938C327.37 270.407 326.863 270.698 326.274 270.818C325.346 271.006 324.435 270.961 323.607 270.444C322.495 269.749 322.181 268.665 322.232 267.427C322.258 266.791 322.397 266.183 322.774 265.652C323.23 265.011 323.855 264.616 324.613 264.48C325.793 264.268 326.89 264.448 327.765 265.362C328.375 265.999 328.544 266.803 328.551 267.658C328.552 267.768 328.499 267.821 328.393 267.824C328.261 267.827 328.13 267.829 327.999 267.829C326.429 267.829 324.86 267.828 323.29 267.828C323.195 267.828 323.101 267.836 322.991 267.841L322.992 267.841ZM323.022 267.16H327.767C327.684 266.026 326.79 265.092 325.45 265.085C324.084 265.077 323.096 265.898 323.022 267.16Z" fill="white"/>
<path d="M292.676 270.911C291.792 270.904 290.876 270.54 290.232 269.611C289.945 269.197 289.806 268.729 289.756 268.232C289.658 267.268 289.721 266.324 290.353 265.537C291.154 264.54 292.245 264.288 293.451 264.446C294.377 264.567 295.159 264.994 295.601 265.842C296.238 267.065 296.257 268.339 295.556 269.539C294.972 270.541 293.999 270.907 292.675 270.911L292.676 270.911ZM293.109 270.222C293.53 270.217 294.112 270.073 294.584 269.615C295.024 269.189 295.233 268.654 295.287 268.056C295.359 267.25 295.278 266.467 294.713 265.838C293.995 265.042 293.074 264.972 292.1 265.188C291.716 265.273 291.391 265.474 291.116 265.764C290.557 266.353 290.439 267.079 290.463 267.852C290.509 269.322 291.449 270.237 293.109 270.222Z" fill="white"/>
<path d="M307.675 270.911C306.925 270.907 306.232 270.745 305.695 270.165C305.607 270.069 305.529 269.959 305.466 269.845C305.27 269.488 305.293 269.443 305.672 269.294C305.807 269.242 305.901 269.251 305.984 269.383C306.451 270.126 307.164 270.299 307.968 270.23C308.211 270.21 308.451 270.153 308.682 270.061C309.17 269.866 309.399 269.538 309.375 269.056C309.357 268.691 309.046 268.346 308.596 268.229C307.927 268.054 307.247 267.919 306.584 267.727C305.74 267.483 305.36 267.041 305.316 266.335C305.271 265.604 305.657 264.979 306.422 264.674C307.404 264.282 308.389 264.26 309.326 264.832C309.64 265.023 309.858 265.31 310.021 265.644C310.1 265.804 310.051 265.886 309.901 265.952C309.548 266.108 309.537 266.112 309.311 265.781C309.097 265.467 308.8 265.269 308.445 265.175C307.879 265.028 307.316 265.064 306.764 265.26C306.515 265.348 306.318 265.506 306.19 265.739C305.903 266.262 306.073 266.764 306.619 266.994C307.099 267.197 307.612 267.275 308.116 267.381C308.564 267.477 308.997 267.619 309.391 267.857C309.879 268.152 310.141 268.587 310.116 269.175C310.091 269.779 309.823 270.238 309.296 270.53C308.792 270.809 308.245 270.91 307.675 270.911H307.675Z" fill="white"/>
<path d="M285.411 270.911C284.015 270.908 282.941 270.233 282.48 269.031C282.036 267.871 282.155 266.166 283.16 265.252C284.158 264.344 285.32 264.221 286.553 264.582C287.334 264.81 287.912 265.317 288.263 266.074C288.354 266.27 288.312 266.373 288.111 266.427C288.027 266.45 287.948 266.492 287.864 266.516C287.762 266.545 287.67 266.528 287.622 266.418C287.153 265.339 286.257 265.054 285.194 265.097C284.213 265.138 283.438 265.691 283.16 266.551C282.94 267.232 282.929 267.922 283.121 268.616C283.288 269.217 283.64 269.662 284.184 269.952C285.346 270.571 286.851 270.176 287.553 269.062C287.633 268.936 287.704 268.909 287.829 268.969C287.9 269.003 287.972 269.039 288.047 269.059C288.255 269.114 288.26 269.23 288.167 269.395C287.66 270.311 286.861 270.767 285.853 270.89C285.697 270.909 285.538 270.906 285.41 270.911H285.411Z" fill="white"/>
<path d="M303.48 268.748C303.48 269.306 303.468 269.864 303.486 270.422C303.494 270.674 303.407 270.764 303.169 270.729C303.117 270.722 303.064 270.724 303.011 270.729C302.806 270.747 302.739 270.657 302.739 270.448C302.743 269.341 302.753 268.234 302.723 267.128C302.707 266.529 302.501 265.984 302.03 265.578C301.138 264.808 299.519 264.958 298.866 265.879C298.531 266.351 298.441 266.901 298.439 267.467C298.435 268.45 298.439 269.434 298.438 270.416C298.438 270.729 298.436 270.724 298.049 270.731C297.831 270.735 297.69 270.722 297.695 270.424C297.714 269.398 297.685 268.37 297.705 267.343C297.723 266.447 297.964 265.638 298.68 265.028C299.732 264.128 302.115 264.075 303.052 265.663C303.397 266.248 303.482 266.889 303.481 267.552C303.48 267.951 303.481 268.349 303.481 268.747L303.48 268.748Z" fill="white"/>
<path d="M316.971 266.577C316.971 266.01 316.964 265.443 316.973 264.877C316.978 264.58 316.99 264.591 317.444 264.586C317.681 264.583 317.714 264.697 317.711 264.897C317.699 266.004 317.737 267.112 317.68 268.216C317.591 269.96 316.391 270.995 314.661 270.909C313.625 270.857 312.8 270.458 312.284 269.516C312.041 269.073 311.945 268.585 311.939 268.087C311.924 267.024 311.931 265.962 311.933 264.899C311.933 264.589 311.939 264.6 312.351 264.587C312.587 264.579 312.673 264.65 312.671 264.901C312.659 265.928 312.656 266.956 312.672 267.983C312.683 268.685 312.86 269.328 313.432 269.803C313.606 269.947 313.806 270.027 314.008 270.094C315.056 270.442 316.308 270.117 316.757 269.046C316.921 268.656 316.964 268.244 316.966 267.825C316.968 267.409 316.966 266.993 316.966 266.577C316.967 266.577 316.968 266.577 316.969 266.577H316.971Z" fill="white"/>
<path d="M319.674 265.355C319.674 263.663 319.682 261.971 319.666 260.279C319.664 259.963 319.836 259.989 320.033 259.991C320.233 259.993 320.417 259.954 320.416 260.288C320.404 263.663 320.409 267.037 320.406 270.412C320.406 270.516 320.466 270.673 320.307 270.705C320.113 270.743 319.904 270.773 319.718 270.678C319.632 270.634 319.675 270.515 319.675 270.43C319.673 268.738 319.673 267.047 319.674 265.355V265.355Z" fill="white"/>
<path d="M315.54 281.826C315.522 280.85 315.858 279.93 316.73 279.258C317.197 278.898 317.744 278.749 318.316 278.7C319.336 278.61 320.275 278.817 321.019 279.582C321.812 280.397 321.95 281.415 321.825 282.489C321.672 283.807 320.973 284.711 319.695 285.056C318.166 285.469 316.565 284.987 315.86 283.553C315.609 283.042 315.54 282.492 315.54 281.826ZM316.28 281.915C316.288 282.074 316.291 282.234 316.303 282.392C316.382 283.402 317.062 284.238 318.015 284.426C319.035 284.627 319.979 284.499 320.663 283.59C320.999 283.143 321.117 282.614 321.128 282.068C321.147 281.079 320.911 280.19 319.984 279.671C319.252 279.26 318.467 279.268 317.693 279.537C317.078 279.751 316.675 280.2 316.454 280.819C316.327 281.174 316.279 281.54 316.28 281.914V281.915Z" fill="white"/>
<path d="M288.884 282.09C288.885 280.858 289.189 279.934 290.083 279.267C291.293 278.365 293.741 278.393 294.762 280.082C295.407 281.149 295.477 283.482 294.131 284.508C293.194 285.221 292.145 285.335 291.044 285.055C290.204 284.84 289.572 284.329 289.198 283.529C288.962 283.025 288.871 282.486 288.884 282.09H288.884ZM291.956 279.369C291.377 279.361 290.772 279.522 290.298 280.02C289.637 280.715 289.553 281.571 289.667 282.469C289.809 283.593 290.448 284.288 291.555 284.461C292.537 284.614 293.425 284.414 294.042 283.541C294.415 283.014 294.481 282.4 294.469 281.77C294.44 280.292 293.498 279.358 291.955 279.369H291.956Z" fill="white"/>
<path d="M284.775 285.188C284.073 285.184 283.42 285.038 282.886 284.533C282.77 284.423 282.672 284.299 282.591 284.164C282.37 283.791 282.409 283.692 282.811 283.559C282.928 283.52 283.009 283.543 283.079 283.651C283.625 284.489 284.435 284.603 285.326 284.466C285.532 284.434 285.737 284.381 285.927 284.281C286.294 284.088 286.502 283.792 286.489 283.369C286.476 282.936 286.192 282.702 285.833 282.559C285.317 282.354 284.769 282.27 284.23 282.155C283.827 282.07 283.442 281.944 283.077 281.736C282.352 281.323 282.269 280.341 282.632 279.704C282.962 279.125 283.514 278.889 284.118 278.763C284.901 278.599 285.661 278.651 286.374 279.073C286.731 279.285 286.961 279.594 287.141 279.953C287.198 280.067 287.172 280.163 287.044 280.208C286.62 280.354 286.651 280.439 286.413 280.055C286.185 279.686 285.815 279.484 285.394 279.415C284.841 279.325 284.293 279.347 283.77 279.585C283.382 279.76 283.136 280.158 283.168 280.585C283.186 280.845 283.291 281.054 283.537 281.182C284.013 281.427 284.534 281.511 285.046 281.623C285.545 281.731 286.034 281.863 286.479 282.124C286.964 282.409 287.241 282.833 287.23 283.403C287.219 284.021 286.95 284.511 286.398 284.811C285.893 285.086 285.345 285.185 284.775 285.189V285.188Z" fill="white"/>
<path d="M333.485 285.19C332.742 285.187 332.105 285.017 331.582 284.522C331.472 284.418 331.378 284.305 331.301 284.174C331.105 283.837 331.126 283.769 331.464 283.587C331.605 283.51 331.707 283.52 331.797 283.659C332.336 284.492 333.139 284.595 334.021 284.469C334.142 284.452 334.261 284.417 334.377 284.381C334.917 284.213 335.211 283.852 335.197 283.381C335.184 282.953 334.835 282.615 334.311 282.468C333.636 282.279 332.935 282.202 332.272 281.965C331.69 281.757 331.218 281.43 331.146 280.749C331.067 279.998 331.335 279.391 332.018 279.056C333.083 278.535 334.16 278.495 335.199 279.146C335.488 279.326 335.676 279.607 335.829 279.912C335.905 280.063 335.878 280.156 335.721 280.227C335.371 280.386 335.358 280.39 335.135 280.07C334.905 279.738 334.597 279.527 334.209 279.442C333.603 279.308 333.006 279.335 332.437 279.603C332.028 279.796 331.803 280.26 331.887 280.706C331.933 280.954 332.089 281.104 332.306 281.212C332.769 281.441 333.272 281.522 333.768 281.625C334.268 281.729 334.751 281.874 335.198 282.132C336.315 282.776 336.037 284.256 335.201 284.75C334.654 285.074 334.061 285.183 333.485 285.19Z" fill="white"/>
<path d="M304.758 280.84C304.758 280.291 304.765 279.742 304.755 279.193C304.751 278.949 304.823 278.821 305.085 278.863C305.145 278.873 305.207 278.869 305.268 278.864C305.422 278.852 305.498 278.915 305.495 279.076C305.473 280.315 305.575 281.56 305.443 282.793C305.305 284.085 304.419 285.038 302.997 285.169C302.238 285.24 301.506 285.148 300.861 284.693C300.095 284.153 299.764 283.369 299.737 282.462C299.704 281.347 299.728 280.23 299.72 279.115C299.719 278.936 299.771 278.845 299.96 278.864C300.029 278.871 300.101 278.874 300.17 278.865C300.392 278.837 300.459 278.938 300.457 279.154C300.45 280.163 300.452 281.173 300.457 282.183C300.46 282.694 300.545 283.193 300.825 283.626C301.296 284.352 302.28 284.675 303.212 284.434C304.093 284.207 304.672 283.528 304.726 282.592C304.761 282.01 304.733 281.424 304.733 280.84C304.742 280.84 304.75 280.84 304.759 280.84L304.758 280.84Z" fill="white"/>
<path d="M329.295 283.075C329.295 283.624 329.288 284.173 329.299 284.721C329.304 284.941 329.229 285.017 329.011 285.014C328.559 285.007 328.565 285.016 328.56 284.569C328.546 283.481 328.617 282.391 328.525 281.305C328.422 280.084 327.625 279.371 326.414 279.367C325.172 279.363 324.379 280.081 324.285 281.333C324.202 282.454 324.253 283.58 324.256 284.703C324.257 285.022 324.095 285.011 323.879 285.012C323.67 285.013 323.502 285.017 323.511 284.718C323.546 283.551 323.457 282.38 323.557 281.215C323.686 279.713 324.701 278.751 326.197 278.684C327.129 278.641 327.971 278.863 328.617 279.6C329.088 280.137 329.26 280.786 329.281 281.482C329.297 282.013 329.284 282.544 329.284 283.075C329.287 283.075 329.29 283.075 329.294 283.075H329.295Z" fill="white"/>
<path d="M309.468 278.866C309.965 278.866 310.456 278.881 310.946 278.86C311.216 278.848 311.242 278.978 311.247 279.194C311.251 279.427 311.189 279.532 310.934 279.521C310.523 279.501 310.109 279.527 309.698 279.511C309.479 279.502 309.409 279.577 309.411 279.796C309.417 281.434 309.409 283.072 309.42 284.71C309.422 284.93 309.374 285.031 309.147 285.005C309.078 284.997 309.007 284.999 308.937 285.006C308.725 285.026 308.673 284.924 308.674 284.721C308.682 283.411 308.679 282.1 308.68 280.79C308.68 280.444 308.673 280.099 308.681 279.754C308.685 279.57 308.62 279.506 308.435 279.511C307.997 279.522 307.558 279.501 307.12 279.519C306.827 279.531 306.853 279.347 306.845 279.156C306.836 278.945 306.903 278.854 307.131 278.861C307.63 278.876 308.129 278.865 308.616 278.865C308.704 278.768 308.675 278.666 308.676 278.572C308.68 277.9 308.689 277.226 308.676 276.554C308.672 276.331 308.741 276.242 308.956 276.261C309.035 276.268 309.114 276.268 309.193 276.264C309.367 276.254 309.417 276.341 309.415 276.507C309.409 277.171 309.412 277.835 309.414 278.499C309.414 278.612 309.394 278.73 309.466 278.866H309.468Z" fill="white"/>
<path d="M297.019 279.604C297.019 277.923 297.018 276.241 297.022 274.56C297.022 274.464 296.965 274.307 297.103 274.286C297.305 274.255 297.527 274.206 297.715 274.317C297.806 274.371 297.76 274.516 297.76 274.619C297.762 276.097 297.761 277.575 297.76 279.052C297.76 280.92 297.761 282.787 297.758 284.654C297.758 284.77 297.819 284.941 297.67 284.984C297.48 285.04 297.265 285.049 297.079 284.97C296.975 284.925 297.015 284.778 297.015 284.675C297.014 283.506 297.017 282.338 297.018 281.17C297.018 280.648 297.018 280.126 297.018 279.604L297.019 279.604Z" fill="white"/>
<path d="M313.608 281.945C313.608 282.875 313.602 283.805 313.612 284.735C313.614 284.95 313.539 285.027 313.337 285.008C313.259 285 313.179 285.001 313.1 285.006C312.947 285.016 312.875 284.956 312.875 284.793C312.878 282.889 312.879 280.985 312.877 279.08C312.877 278.921 312.936 278.868 313.094 278.863C313.609 278.848 313.609 278.842 313.609 279.368C313.609 280.227 313.609 281.086 313.609 281.945H313.608H313.608Z" fill="white"/>
<path d="M313.878 276.903C313.875 277.283 313.607 277.548 313.227 277.547C312.848 277.545 312.609 277.3 312.609 276.914C312.609 276.539 312.889 276.254 313.251 276.263C313.616 276.271 313.88 276.542 313.878 276.903L313.878 276.903Z" fill="white"/>
<rect x="31.1172" y="301.07" width="146.352" height="45.0727" rx="22.5364" fill="#E1EEFD"/>
<path d="M88.5678 317.697V328.606H86.5916V317.697H88.5678ZM92.5509 323.812V328.606H90.6226V320.424H92.4656V321.815H92.5615C92.7497 321.356 93.0498 320.993 93.4617 320.723C93.8772 320.453 94.3904 320.318 95.0012 320.318C95.5658 320.318 96.0576 320.439 96.4767 320.68C96.8992 320.921 97.2259 321.271 97.4568 321.729C97.6911 322.187 97.8066 322.743 97.803 323.397V328.606H95.8747V323.695C95.8747 323.148 95.7327 322.72 95.4486 322.411C95.1681 322.102 94.7792 321.948 94.282 321.948C93.9447 321.948 93.6446 322.022 93.3818 322.171C93.1226 322.317 92.9184 322.528 92.7693 322.805C92.6237 323.082 92.5509 323.418 92.5509 323.812ZM103.849 320.424V321.916H99.1453V320.424H103.849ZM100.307 318.464H102.235V326.145C102.235 326.404 102.274 326.603 102.352 326.742C102.434 326.877 102.54 326.969 102.672 327.019C102.803 327.068 102.949 327.093 103.108 327.093C103.229 327.093 103.339 327.084 103.439 327.067C103.542 327.049 103.62 327.033 103.673 327.019L103.998 328.526C103.895 328.562 103.748 328.601 103.556 328.643C103.368 328.686 103.137 328.711 102.863 328.718C102.38 328.732 101.945 328.659 101.558 328.5C101.171 328.336 100.864 328.084 100.637 327.743C100.413 327.402 100.303 326.976 100.307 326.465V318.464ZM108.996 328.766C108.175 328.766 107.467 328.595 106.87 328.255C106.277 327.91 105.821 327.424 105.501 326.795C105.182 326.163 105.022 325.419 105.022 324.563C105.022 323.722 105.182 322.983 105.501 322.347C105.825 321.708 106.276 321.211 106.854 320.856C107.433 320.497 108.113 320.318 108.895 320.318C109.399 320.318 109.875 320.399 110.322 320.563C110.773 320.723 111.171 320.971 111.515 321.309C111.863 321.646 112.137 322.076 112.336 322.598C112.534 323.116 112.634 323.734 112.634 324.451V325.043H105.928V323.743H110.786C110.782 323.374 110.702 323.045 110.546 322.757C110.39 322.466 110.171 322.237 109.891 322.07C109.614 321.903 109.29 321.82 108.921 321.82C108.527 321.82 108.181 321.916 107.882 322.108C107.584 322.296 107.352 322.544 107.185 322.853C107.021 323.159 106.938 323.494 106.934 323.86V324.995C106.934 325.47 107.021 325.879 107.195 326.22C107.369 326.557 107.613 326.816 107.925 326.997C108.238 327.175 108.603 327.264 109.022 327.264C109.303 327.264 109.557 327.225 109.784 327.147C110.011 327.065 110.208 326.946 110.375 326.79C110.542 326.633 110.668 326.44 110.754 326.209L112.554 326.412C112.44 326.887 112.224 327.303 111.904 327.658C111.588 328.01 111.183 328.283 110.69 328.478C110.196 328.67 109.631 328.766 108.996 328.766ZM117.823 331.845C117.131 331.845 116.536 331.751 116.039 331.562C115.542 331.378 115.142 331.129 114.84 330.817C114.539 330.504 114.329 330.158 114.212 329.778L115.948 329.357C116.027 329.517 116.14 329.675 116.289 329.831C116.438 329.991 116.639 330.122 116.891 330.225C117.147 330.332 117.468 330.385 117.855 330.385C118.402 330.385 118.855 330.252 119.214 329.986C119.572 329.723 119.752 329.29 119.752 328.686V327.136H119.656C119.556 327.335 119.411 327.539 119.219 327.749C119.031 327.958 118.78 328.134 118.468 328.276C118.159 328.418 117.77 328.489 117.301 328.489C116.673 328.489 116.103 328.342 115.592 328.047C115.084 327.749 114.679 327.305 114.377 326.715C114.079 326.122 113.93 325.38 113.93 324.489C113.93 323.59 114.079 322.832 114.377 322.214C114.679 321.593 115.085 321.122 115.597 320.803C116.108 320.479 116.678 320.318 117.307 320.318C117.786 320.318 118.18 320.399 118.489 320.563C118.802 320.723 119.05 320.916 119.235 321.143C119.42 321.367 119.56 321.578 119.656 321.777H119.762V320.424H121.664V328.739C121.664 329.439 121.497 330.018 121.163 330.476C120.829 330.934 120.373 331.277 119.794 331.504C119.215 331.731 118.559 331.845 117.823 331.845ZM117.839 326.976C118.248 326.976 118.596 326.877 118.883 326.678C119.171 326.479 119.389 326.193 119.539 325.82C119.688 325.447 119.762 325 119.762 324.478C119.762 323.963 119.688 323.512 119.539 323.125C119.393 322.738 119.176 322.438 118.889 322.225C118.605 322.008 118.255 321.9 117.839 321.9C117.41 321.9 117.051 322.012 116.763 322.235C116.476 322.459 116.259 322.766 116.114 323.157C115.968 323.544 115.895 323.984 115.895 324.478C115.895 324.979 115.968 325.417 116.114 325.794C116.263 326.167 116.481 326.458 116.769 326.667C117.06 326.873 117.417 326.976 117.839 326.976ZM123.64 328.606V320.424H125.51V321.788H125.595C125.744 321.316 126 320.952 126.362 320.696C126.728 320.437 127.145 320.307 127.614 320.307C127.72 320.307 127.839 320.312 127.971 320.323C128.106 320.33 128.218 320.343 128.306 320.36V322.134C128.225 322.106 128.095 322.081 127.918 322.06C127.744 322.035 127.575 322.022 127.411 322.022C127.06 322.022 126.744 322.099 126.463 322.251C126.186 322.401 125.968 322.608 125.808 322.875C125.648 323.141 125.568 323.448 125.568 323.796V328.606H123.64ZM131.795 328.771C131.277 328.771 130.81 328.679 130.394 328.494C129.983 328.306 129.656 328.029 129.414 327.663C129.176 327.298 129.057 326.847 129.057 326.31C129.057 325.849 129.143 325.467 129.313 325.165C129.484 324.863 129.716 324.622 130.011 324.441C130.306 324.26 130.638 324.123 131.007 324.031C131.38 323.935 131.765 323.865 132.163 323.823C132.642 323.773 133.031 323.729 133.329 323.69C133.628 323.647 133.844 323.583 133.979 323.498C134.118 323.409 134.187 323.272 134.187 323.088V323.056C134.187 322.654 134.068 322.344 133.83 322.124C133.592 321.903 133.25 321.793 132.802 321.793C132.33 321.793 131.955 321.896 131.678 322.102C131.405 322.308 131.22 322.551 131.124 322.832L129.324 322.576C129.466 322.079 129.7 321.664 130.027 321.33C130.354 320.993 130.753 320.74 131.225 320.573C131.698 320.403 132.22 320.318 132.791 320.318C133.186 320.318 133.578 320.364 133.969 320.456C134.359 320.549 134.716 320.701 135.039 320.914C135.362 321.124 135.622 321.41 135.817 321.772C136.016 322.134 136.115 322.587 136.115 323.13V328.606H134.262V327.482H134.198C134.081 327.709 133.915 327.923 133.702 328.121C133.493 328.317 133.228 328.475 132.909 328.595C132.593 328.713 132.222 328.771 131.795 328.771ZM132.296 327.354C132.683 327.354 133.019 327.278 133.303 327.125C133.587 326.969 133.805 326.763 133.958 326.507C134.114 326.252 134.192 325.973 134.192 325.671V324.707C134.132 324.757 134.029 324.803 133.883 324.845C133.741 324.888 133.582 324.925 133.404 324.957C133.226 324.989 133.051 325.018 132.877 325.043C132.703 325.067 132.552 325.089 132.424 325.106C132.136 325.146 131.879 325.209 131.652 325.298C131.424 325.387 131.245 325.511 131.114 325.671C130.982 325.827 130.916 326.03 130.916 326.278C130.916 326.633 131.046 326.902 131.305 327.083C131.565 327.264 131.895 327.354 132.296 327.354ZM142.14 320.424V321.916H137.436V320.424H142.14ZM138.598 318.464H140.526V326.145C140.526 326.404 140.565 326.603 140.643 326.742C140.725 326.877 140.831 326.969 140.963 327.019C141.094 327.068 141.24 327.093 141.399 327.093C141.52 327.093 141.63 327.084 141.73 327.067C141.833 327.049 141.911 327.033 141.964 327.019L142.289 328.526C142.186 328.562 142.039 328.601 141.847 328.643C141.659 328.686 141.428 328.711 141.154 328.718C140.671 328.732 140.236 328.659 139.849 328.5C139.462 328.336 139.155 328.084 138.928 327.743C138.704 327.402 138.594 326.976 138.598 326.465V318.464ZM143.752 328.606V320.424H145.681V328.606H143.752ZM144.722 319.263C144.417 319.263 144.154 319.162 143.934 318.959C143.713 318.754 143.603 318.507 143.603 318.219C143.603 317.928 143.713 317.681 143.934 317.479C144.154 317.273 144.417 317.17 144.722 317.17C145.031 317.17 145.294 317.273 145.51 317.479C145.73 317.681 145.841 317.928 145.841 318.219C145.841 318.507 145.73 318.754 145.51 318.959C145.294 319.162 145.031 319.263 144.722 319.263ZM151.233 328.766C150.434 328.766 149.741 328.59 149.155 328.239C148.569 327.887 148.115 327.395 147.791 326.763C147.472 326.131 147.312 325.392 147.312 324.547C147.312 323.702 147.472 322.962 147.791 322.326C148.115 321.69 148.569 321.197 149.155 320.845C149.741 320.494 150.434 320.318 151.233 320.318C152.032 320.318 152.724 320.494 153.31 320.845C153.896 321.197 154.349 321.69 154.668 322.326C154.991 322.962 155.153 323.702 155.153 324.547C155.153 325.392 154.991 326.131 154.668 326.763C154.349 327.395 153.896 327.887 153.31 328.239C152.724 328.59 152.032 328.766 151.233 328.766ZM151.243 327.221C151.676 327.221 152.039 327.102 152.33 326.864C152.621 326.623 152.838 326.3 152.98 325.895C153.125 325.49 153.198 325.039 153.198 324.542C153.198 324.041 153.125 323.588 152.98 323.184C152.838 322.775 152.621 322.45 152.33 322.209C152.039 321.967 151.676 321.847 151.243 321.847C150.799 321.847 150.43 321.967 150.135 322.209C149.844 322.45 149.626 322.775 149.48 323.184C149.338 323.588 149.267 324.041 149.267 324.542C149.267 325.039 149.338 325.49 149.48 325.895C149.626 326.3 149.844 326.623 150.135 326.864C150.43 327.102 150.799 327.221 151.243 327.221ZM158.718 323.812V328.606H156.79V320.424H158.633V321.815H158.729C158.917 321.356 159.217 320.993 159.629 320.723C160.044 320.453 160.557 320.318 161.168 320.318C161.733 320.318 162.225 320.439 162.644 320.68C163.066 320.921 163.393 321.271 163.624 321.729C163.858 322.187 163.974 322.743 163.97 323.397V328.606H162.042V323.695C162.042 323.148 161.9 322.72 161.616 322.411C161.335 322.102 160.946 321.948 160.449 321.948C160.112 321.948 159.812 322.022 159.549 322.171C159.29 322.317 159.085 322.528 158.936 322.805C158.791 323.082 158.718 323.418 158.718 323.812Z" fill="#3A81D2"/>
<mask id="mask0_129_6138" style="mask-type:alpha" maskUnits="userSpaceOnUse" x="43" y="308" width="31" height="31">
<rect x="43.0781" y="308.606" width="30" height="30" fill="#D9D9D9"/>
</mask>
<g mask="url(#mask0_129_6138)">
<path fill-rule="evenodd" clip-rule="evenodd" d="M57.1519 316.941C57.1535 316.676 57.113 316.527 56.8046 316.441C55.7808 316.159 55.092 315.162 55.0993 314.08C55.0961 312.949 55.8941 312.02 56.8313 311.723C57.1915 311.608 57.5731 311.578 57.9469 311.633C58.3207 311.688 58.677 311.829 58.9884 312.043C59.2998 312.257 59.5583 312.539 59.744 312.868C59.9297 313.197 60.0377 313.565 60.0599 313.942C60.1024 314.489 59.9571 315.033 59.6481 315.486C59.339 315.939 58.8848 316.273 58.3603 316.433C58.0681 316.526 58.0058 316.653 58.0058 316.924V324.597C58.0111 324.732 58.0067 324.867 57.9928 325.001C57.9564 325.246 57.8382 325.437 57.5614 325.429C57.2668 325.421 57.1519 325.226 57.1519 324.952V321.761V320.878C57.1519 320.441 57.151 320.003 57.1501 319.565V319.565V319.565C57.1483 318.69 57.1465 317.815 57.1519 316.941ZM61.0969 323.711C61.0961 324.057 60.948 324.24 60.672 324.24C60.379 324.24 60.2446 324.092 60.2446 323.722C60.2373 322.703 60.2357 321.685 60.2495 320.667C60.2596 320.527 60.32 320.396 60.4194 320.297L60.4539 320.264L60.454 320.264L60.454 320.264C61.2866 319.471 62.1197 318.678 62.9795 317.917C63.2191 317.705 63.2102 317.523 63.1146 317.281C62.6792 316.16 63.3121 314.867 64.2024 314.367C65.0442 313.893 66.17 313.903 66.9406 314.495C67.7637 315.126 68.0842 315.992 67.8843 317.005C67.5233 318.825 65.4675 319.565 63.9184 318.455C63.8906 318.437 63.8635 318.416 63.8325 318.392L63.8324 318.392C63.8146 318.377 63.7955 318.362 63.7743 318.346L63.337 318.75C62.6208 319.41 61.9088 320.067 61.2045 320.732C61.1309 320.802 61.1017 320.951 61.1017 321.064C61.0969 321.945 61.0969 322.827 61.0969 323.708V323.711ZM47.3281 317.336C47.3257 317.346 47.3259 317.357 47.3284 317.366C47.3309 317.376 47.3358 317.385 47.3426 317.393C47.3428 317.396 47.3428 317.4 47.3426 317.404V317.408V317.422C47.345 317.451 47.3541 317.479 47.3693 317.503C47.381 317.519 47.3916 317.536 47.4009 317.553C47.409 317.577 47.4157 317.601 47.4211 317.625C47.4489 317.72 47.4906 317.809 47.545 317.892L47.5547 317.908C47.5649 317.922 47.5797 317.933 47.5968 317.939L47.7666 318.092L47.7666 318.092C47.9343 318.244 48.1019 318.395 48.2677 318.549C48.3001 318.582 48.3382 318.61 48.3802 318.63C48.4033 318.654 48.4327 318.672 48.4652 318.681C48.4785 318.688 48.4923 318.695 48.5065 318.701L48.5414 318.714L48.5414 318.714C48.6061 318.738 48.6712 318.763 48.7364 318.782C48.7627 318.791 48.7898 318.799 48.8173 318.804C48.8417 318.82 48.8694 318.829 48.8983 318.833C48.9176 318.843 48.9388 318.85 48.9606 318.851C49.511 319.083 50.4676 318.951 51.0949 318.528C51.3184 318.704 51.5386 318.883 51.7581 319.062C52.2754 319.483 52.7888 319.9 53.332 320.273C53.8751 320.647 54.0904 321.072 54.0329 321.73C53.989 322.232 54.0018 322.733 54.0146 323.235V323.235L54.0146 323.235C54.0186 323.39 54.0225 323.544 54.0248 323.699C54.0305 324.077 54.1665 324.234 54.4489 324.237C54.7314 324.24 54.8658 324.089 54.8674 323.745C54.8694 323.399 54.8682 323.053 54.8671 322.706V322.705V322.705C54.865 322.079 54.8629 321.451 54.8795 320.825C54.8884 320.501 54.7654 320.308 54.5266 320.124C54.0356 319.747 53.5502 319.366 53.0649 318.984L53.0648 318.984C52.6702 318.674 52.2758 318.364 51.8784 318.057C51.7432 317.952 51.7254 317.868 51.8104 317.722C52.6092 316.352 51.8581 314.625 50.4701 314.16C48.7072 313.569 46.9201 315.011 47.2139 316.867C47.2358 316.971 47.2617 317.072 47.2859 317.167C47.3011 317.226 47.3156 317.283 47.3281 317.336ZM68.7828 321.475C68.877 321.553 68.9397 321.664 68.9594 321.785C69.1787 322.833 69.1941 323.895 69.0986 324.958C69.0721 325.244 69.0268 325.53 68.9815 325.815C68.9754 325.853 68.9694 325.892 68.9634 325.93C68.927 326.16 68.7918 326.263 68.549 326.295C67.9136 326.38 67.2799 326.487 66.6486 326.601C66.5984 326.611 66.5509 326.632 66.5091 326.661C66.4673 326.691 66.4321 326.729 66.4058 326.773C66.2104 327.191 66.0318 327.615 65.87 328.044C65.8578 328.093 65.8559 328.143 65.8646 328.193C65.8732 328.243 65.8921 328.29 65.9201 328.332C66.2908 328.852 66.6672 329.369 67.0581 329.875C67.2208 330.085 67.237 330.264 67.084 330.485C66.3109 331.588 65.3544 332.55 64.2561 333.329C64.0076 333.508 63.7462 333.491 63.5034 333.302C63.4008 333.223 63.2984 333.144 63.196 333.065C62.8289 332.781 62.4616 332.498 62.0869 332.224C62.0392 332.19 61.9847 332.167 61.9273 332.155C61.8698 332.144 61.8106 332.145 61.7535 332.158C61.3148 332.325 60.8858 332.518 60.4585 332.712C60.4209 332.729 60.3872 332.753 60.3594 332.784C60.3315 332.814 60.3102 332.85 60.2966 332.889C60.2922 332.915 60.2879 332.942 60.2835 332.968C60.2068 333.431 60.1298 333.896 60.0862 334.364C60.0117 335.152 59.93 335.308 59.1457 335.345C58.3029 335.384 57.457 335.372 56.6121 335.359C56.3949 335.356 56.1778 335.353 55.9608 335.351C55.7686 335.346 55.5793 335.303 55.4047 335.222C55.3419 335.193 55.2857 335.151 55.2394 335.099C55.1931 335.048 55.1577 334.987 55.1352 334.922C55.0462 334.5 54.9847 334.072 54.9313 333.643C54.8673 333.56 54.8248 333.463 54.8074 333.36C54.7459 333.092 54.6901 332.883 54.5282 332.667C54.43 332.634 54.3345 332.591 54.2391 332.549C54.1977 332.53 54.1562 332.512 54.1146 332.494L53.7674 332.355C53.7404 332.344 53.7152 332.329 53.6929 332.311C53.3012 332.033 53.0155 332.205 52.7039 332.486C52.4647 332.703 52.1989 332.891 51.9332 333.079C51.8231 333.157 51.7129 333.235 51.6047 333.315C51.3425 333.509 51.0819 333.495 50.8253 333.305C49.7891 332.551 48.8798 331.637 48.1317 330.597C47.9035 330.275 47.9027 330.079 48.1374 329.772C48.2494 329.625 48.3605 329.479 48.4716 329.332C48.7048 329.023 48.9381 328.714 49.1799 328.413C49.3166 328.245 49.3012 328.1 49.209 327.922C49.193 327.89 49.1767 327.859 49.1604 327.828C49.0512 327.618 48.9396 327.404 48.8917 327.179C48.7938 326.721 48.5105 326.546 48.0823 326.496C47.8552 326.47 47.6291 326.436 47.403 326.403C47.1273 326.363 46.8516 326.322 46.5745 326.294C46.309 326.266 46.1803 326.132 46.1625 325.889C46.1484 325.704 46.1334 325.518 46.1184 325.332C46.0652 324.675 46.012 324.017 46.0006 323.358C45.9938 323.004 46.0438 322.649 46.0938 322.294C46.1149 322.144 46.136 321.994 46.1528 321.845C46.1852 321.561 46.3333 321.411 46.6336 321.379C46.8499 321.357 47.0653 321.324 47.2806 321.29C47.5673 321.246 47.8538 321.201 48.1422 321.183C48.5469 321.158 48.7614 320.994 48.8707 320.601C48.9055 320.473 49.0997 320.326 49.2406 320.302L53.1167 320.318L53.2478 320.411C53.748 320.754 53.9309 321.132 53.8799 321.716C53.845 322.224 53.8388 322.734 53.8613 323.243C53.8624 323.294 53.8638 323.345 53.8652 323.396C53.8681 323.498 53.871 323.6 53.871 323.701C53.8775 324.156 54.0741 324.395 54.4545 324.399H54.4651C54.5387 324.403 54.6125 324.393 54.682 324.368C54.7515 324.343 54.8153 324.305 54.8698 324.255C54.9831 324.143 55.0405 323.977 55.0405 323.746V322.714C55.0381 322.096 55.0357 321.456 55.0527 320.829C55.0621 320.654 55.022 320.479 54.9369 320.326L56.9879 320.334V322.575V324.953C56.9879 325.348 57.1951 325.581 57.5545 325.591H57.5755C57.8887 325.591 58.0975 325.387 58.151 325.025C58.165 324.909 58.1699 324.792 58.1655 324.676V323.232V320.339L60.1752 320.347C60.1207 320.442 60.0899 320.549 60.0854 320.658C60.0732 321.548 60.0716 322.491 60.0805 323.716C60.0821 323.947 60.1275 324.109 60.2246 324.223C60.2797 324.285 60.3481 324.332 60.4246 324.363C60.5011 324.394 60.5836 324.406 60.6657 324.4H60.673C60.8486 324.398 61.259 324.329 61.259 323.71V322.808V322.806C61.259 322.234 61.259 321.644 61.2638 321.064C61.2595 320.988 61.2776 320.913 61.3156 320.848C61.4904 320.684 61.6661 320.519 61.8425 320.354L65.6142 320.369C65.7332 320.212 66.0958 320.276 66.201 320.455C66.2473 320.533 66.2815 320.617 66.3022 320.705C66.3726 321.023 66.566 321.175 66.8898 321.164C66.9684 321.16 67.0469 321.174 67.1196 321.204C67.2875 321.217 67.4542 321.242 67.6211 321.267C67.8678 321.303 68.1147 321.34 68.3653 321.34C68.393 321.34 68.4206 321.345 68.4462 321.356C68.569 321.354 68.6885 321.396 68.7828 321.475ZM64.2108 323.916C64.2156 323.88 64.2205 323.844 64.2205 323.808C64.239 323.696 64.2338 323.581 64.2051 323.472C64.1959 323.408 64.1875 323.341 64.1787 323.271C64.1487 323.034 64.115 322.766 64.0367 322.516C63.9971 322.387 63.7478 322.233 63.6094 322.246C63.3892 322.268 63.2654 322.477 63.2937 322.723C63.3045 322.817 63.3138 322.911 63.3231 323.006C63.3381 323.159 63.3531 323.312 63.3747 323.462C63.3861 323.531 63.4042 323.598 63.4289 323.663C63.423 323.702 63.4274 323.742 63.4418 323.778C63.4412 323.914 63.4298 324.049 63.4078 324.183C63.4018 324.195 63.3972 324.208 63.3941 324.222C63.3827 324.277 63.3754 324.334 63.3722 324.39C63.3091 325.704 62.7879 326.83 61.9291 327.802C60.1242 329.845 57.3246 330.336 55.0632 329.212C52.7848 328.081 51.6403 326.176 51.7213 323.594C51.7289 323.414 51.7513 323.235 51.7736 323.056C51.7891 322.932 51.8046 322.808 51.8152 322.684C51.8362 322.429 51.6905 322.236 51.4599 322.243C51.3182 322.247 51.1442 322.414 51.0552 322.559C50.9663 322.703 50.9492 322.902 50.9338 323.081L50.9338 323.081C50.8285 324.326 50.9532 325.532 51.4922 326.683C52.4489 328.728 54.0426 330.008 56.2238 330.455C58.1202 330.843 59.9194 330.47 61.5074 329.298C62.9384 328.241 63.7785 326.813 64.1355 325.085C64.1607 324.998 64.1607 324.906 64.1355 324.819C64.163 324.668 64.1817 324.515 64.1913 324.362C64.2089 324.301 64.2119 324.237 64.2002 324.175C64.2051 324.104 64.2051 324.033 64.2051 323.961C64.2068 323.946 64.2088 323.931 64.2108 323.916Z" fill="url(#paint0_linear_129_6138)"/>
</g>
<rect x="31.1172" y="301.07" width="146.352" height="45.0727" rx="22.5364" stroke="#E1EDFB"/>
<rect x="189.078" y="84.9666" width="179.679" height="45.0727" rx="22.5364" fill="#E1EEFD"/>
<path d="M246.193 101.594V112.503H244.217V101.594H246.193ZM248.248 112.503V104.321H250.091V105.711H250.187C250.357 105.243 250.639 104.877 251.033 104.614C251.428 104.348 251.898 104.215 252.445 104.215C252.999 104.215 253.466 104.35 253.846 104.619C254.229 104.886 254.499 105.25 254.656 105.711H254.741C254.922 105.257 255.227 104.895 255.657 104.625C256.09 104.351 256.603 104.215 257.196 104.215C257.949 104.215 258.564 104.453 259.04 104.928C259.515 105.404 259.753 106.099 259.753 107.011V112.503H257.82V107.309C257.82 106.802 257.685 106.431 257.415 106.196C257.145 105.958 256.815 105.839 256.424 105.839C255.959 105.839 255.595 105.985 255.332 106.276C255.073 106.564 254.943 106.938 254.943 107.4V112.503H253.052V107.23C253.052 106.807 252.924 106.47 252.669 106.217C252.417 105.965 252.086 105.839 251.678 105.839C251.401 105.839 251.149 105.91 250.922 106.052C250.694 106.191 250.513 106.388 250.378 106.644C250.243 106.896 250.176 107.19 250.176 107.528V112.503H248.248ZM261.71 115.571V104.321H263.606V105.674H263.718C263.817 105.475 263.957 105.264 264.138 105.04C264.32 104.813 264.565 104.619 264.874 104.46C265.183 104.296 265.577 104.215 266.056 104.215C266.688 104.215 267.258 104.376 267.766 104.699C268.277 105.019 268.682 105.493 268.98 106.122C269.282 106.747 269.433 107.514 269.433 108.423C269.433 109.321 269.286 110.085 268.991 110.713C268.696 111.342 268.295 111.821 267.787 112.151C267.279 112.482 266.704 112.647 266.061 112.647C265.593 112.647 265.204 112.569 264.895 112.412C264.586 112.256 264.337 112.068 264.149 111.848C263.964 111.624 263.821 111.413 263.718 111.214H263.638V115.571H261.71ZM263.6 108.412C263.6 108.941 263.675 109.405 263.824 109.802C263.977 110.2 264.195 110.511 264.479 110.735C264.767 110.955 265.115 111.065 265.523 111.065C265.95 111.065 266.306 110.951 266.594 110.724C266.882 110.493 267.098 110.179 267.244 109.781C267.393 109.38 267.468 108.923 267.468 108.412C267.468 107.904 267.395 107.453 267.249 107.059C267.104 106.665 266.887 106.356 266.599 106.132C266.312 105.909 265.953 105.797 265.523 105.797C265.112 105.797 264.762 105.905 264.474 106.122C264.186 106.338 263.968 106.642 263.819 107.032C263.673 107.423 263.6 107.883 263.6 108.412ZM273.013 101.594V112.503H271.085V101.594H273.013ZM278.618 112.663C277.797 112.663 277.089 112.492 276.492 112.151C275.899 111.807 275.443 111.32 275.123 110.692C274.804 110.06 274.644 109.316 274.644 108.46C274.644 107.618 274.804 106.88 275.123 106.244C275.447 105.605 275.898 105.108 276.476 104.753C277.055 104.394 277.735 104.215 278.517 104.215C279.021 104.215 279.497 104.296 279.944 104.46C280.395 104.619 280.793 104.868 281.137 105.205C281.485 105.543 281.759 105.972 281.958 106.494C282.157 107.013 282.256 107.631 282.256 108.348V108.939H275.55V107.64H280.408C280.404 107.27 280.324 106.942 280.168 106.654C280.012 106.363 279.793 106.134 279.513 105.967C279.236 105.8 278.913 105.717 278.543 105.717C278.149 105.717 277.803 105.813 277.505 106.004C277.206 106.193 276.974 106.441 276.807 106.75C276.643 107.056 276.56 107.391 276.556 107.757V108.891C276.556 109.367 276.643 109.776 276.817 110.117C276.991 110.454 277.235 110.713 277.547 110.894C277.86 111.072 278.225 111.161 278.644 111.161C278.925 111.161 279.179 111.122 279.406 111.043C279.633 110.962 279.831 110.843 279.997 110.687C280.164 110.53 280.29 110.337 280.376 110.106L282.176 110.308C282.062 110.784 281.846 111.2 281.526 111.555C281.21 111.906 280.805 112.18 280.312 112.375C279.818 112.567 279.253 112.663 278.618 112.663ZM283.887 112.503V104.321H285.73V105.711H285.826C285.997 105.243 286.279 104.877 286.673 104.614C287.067 104.348 287.538 104.215 288.085 104.215C288.639 104.215 289.106 104.35 289.486 104.619C289.869 104.886 290.139 105.25 290.295 105.711H290.381C290.562 105.257 290.867 104.895 291.297 104.625C291.73 104.351 292.243 104.215 292.836 104.215C293.589 104.215 294.203 104.453 294.679 104.928C295.155 105.404 295.393 106.099 295.393 107.011V112.503H293.459V107.309C293.459 106.802 293.324 106.431 293.055 106.196C292.785 105.958 292.454 105.839 292.064 105.839C291.599 105.839 291.235 105.985 290.972 106.276C290.713 106.564 290.583 106.938 290.583 107.4V112.503H288.692V107.23C288.692 106.807 288.564 106.47 288.308 106.217C288.056 105.965 287.726 105.839 287.318 105.839C287.041 105.839 286.789 105.91 286.561 106.052C286.334 106.191 286.153 106.388 286.018 106.644C285.883 106.896 285.816 107.19 285.816 107.528V112.503H283.887ZM300.971 112.663C300.151 112.663 299.443 112.492 298.846 112.151C298.253 111.807 297.797 111.32 297.477 110.692C297.157 110.06 296.998 109.316 296.998 108.46C296.998 107.618 297.157 106.88 297.477 106.244C297.8 105.605 298.251 105.108 298.83 104.753C299.409 104.394 300.089 104.215 300.87 104.215C301.374 104.215 301.85 104.296 302.298 104.46C302.749 104.619 303.146 104.868 303.491 105.205C303.839 105.543 304.112 105.972 304.311 106.494C304.51 107.013 304.609 107.631 304.609 108.348V108.939H297.903V107.64H302.761C302.758 107.27 302.678 106.942 302.521 106.654C302.365 106.363 302.147 106.134 301.866 105.967C301.589 105.8 301.266 105.717 300.897 105.717C300.503 105.717 300.156 105.813 299.858 106.004C299.56 106.193 299.327 106.441 299.16 106.75C298.997 107.056 298.913 107.391 298.91 107.757V108.891C298.91 109.367 298.997 109.776 299.171 110.117C299.345 110.454 299.588 110.713 299.901 110.894C300.213 111.072 300.579 111.161 300.998 111.161C301.278 111.161 301.532 111.122 301.76 111.043C301.987 110.962 302.184 110.843 302.351 110.687C302.518 110.53 302.644 110.337 302.729 110.106L304.53 110.308C304.416 110.784 304.199 111.2 303.88 111.555C303.564 111.906 303.159 112.18 302.665 112.375C302.172 112.567 301.607 112.663 300.971 112.663ZM308.169 107.709V112.503H306.241V104.321H308.084V105.711H308.18C308.368 105.253 308.668 104.889 309.08 104.619C309.495 104.35 310.009 104.215 310.619 104.215C311.184 104.215 311.676 104.335 312.095 104.577C312.517 104.818 312.844 105.168 313.075 105.626C313.309 106.084 313.425 106.64 313.421 107.293V112.503H311.493V107.592C311.493 107.045 311.351 106.617 311.067 106.308C310.786 105.999 310.397 105.845 309.9 105.845C309.563 105.845 309.263 105.919 309 106.068C308.741 106.214 308.537 106.425 308.387 106.702C308.242 106.979 308.169 107.315 308.169 107.709ZM319.467 104.321V105.813H314.763V104.321H319.467ZM315.925 102.361H317.853V110.042C317.853 110.301 317.892 110.5 317.97 110.639C318.052 110.774 318.158 110.866 318.29 110.916C318.421 110.965 318.567 110.99 318.727 110.99C318.847 110.99 318.957 110.981 319.057 110.964C319.16 110.946 319.238 110.93 319.291 110.916L319.616 112.423C319.513 112.459 319.366 112.498 319.174 112.54C318.986 112.583 318.755 112.608 318.482 112.615C317.999 112.629 317.564 112.556 317.176 112.396C316.789 112.233 316.482 111.981 316.255 111.64C316.031 111.299 315.921 110.873 315.925 110.362V102.361ZM323.434 112.668C322.916 112.668 322.449 112.576 322.033 112.391C321.621 112.203 321.294 111.926 321.053 111.56C320.815 111.194 320.696 110.743 320.696 110.207C320.696 109.746 320.781 109.364 320.952 109.062C321.122 108.76 321.355 108.519 321.65 108.338C321.944 108.156 322.276 108.02 322.646 107.927C323.019 107.831 323.404 107.762 323.802 107.72C324.281 107.67 324.67 107.626 324.968 107.586C325.266 107.544 325.483 107.48 325.618 107.395C325.756 107.306 325.826 107.169 325.826 106.985V106.953C325.826 106.551 325.707 106.241 325.469 106.02C325.231 105.8 324.888 105.69 324.441 105.69C323.968 105.69 323.594 105.793 323.317 105.999C323.043 106.205 322.859 106.448 322.763 106.729L320.962 106.473C321.104 105.976 321.339 105.561 321.666 105.227C321.992 104.889 322.392 104.637 322.864 104.47C323.336 104.3 323.858 104.215 324.43 104.215C324.824 104.215 325.217 104.261 325.607 104.353C325.998 104.445 326.355 104.598 326.678 104.811C327.001 105.021 327.26 105.307 327.456 105.669C327.655 106.031 327.754 106.484 327.754 107.027V112.503H325.9V111.379H325.836C325.719 111.606 325.554 111.819 325.341 112.018C325.131 112.214 324.867 112.372 324.547 112.492C324.231 112.61 323.86 112.668 323.434 112.668ZM323.935 111.251C324.322 111.251 324.657 111.175 324.941 111.022C325.226 110.866 325.444 110.66 325.597 110.404C325.753 110.149 325.831 109.87 325.831 109.568V108.604C325.771 108.654 325.668 108.7 325.522 108.742C325.38 108.785 325.22 108.822 325.043 108.854C324.865 108.886 324.689 108.915 324.515 108.939C324.341 108.964 324.19 108.986 324.063 109.003C323.775 109.042 323.517 109.106 323.29 109.195C323.063 109.284 322.884 109.408 322.752 109.568C322.621 109.724 322.555 109.927 322.555 110.175C322.555 110.53 322.685 110.798 322.944 110.98C323.203 111.161 323.533 111.251 323.935 111.251ZM333.778 104.321V105.813H329.075V104.321H333.778ZM330.236 102.361H332.165V110.042C332.165 110.301 332.204 110.5 332.282 110.639C332.363 110.774 332.47 110.866 332.601 110.916C332.733 110.965 332.878 110.99 333.038 110.99C333.159 110.99 333.269 110.981 333.368 110.964C333.471 110.946 333.549 110.93 333.603 110.916L333.928 112.423C333.825 112.459 333.677 112.498 333.486 112.54C333.297 112.583 333.066 112.608 332.793 112.615C332.31 112.629 331.875 112.556 331.488 112.396C331.101 112.233 330.794 111.981 330.566 111.64C330.343 111.299 330.233 110.873 330.236 110.362V102.361ZM335.391 112.503V104.321H337.319V112.503H335.391ZM336.361 103.16C336.055 103.16 335.792 103.059 335.572 102.856C335.352 102.65 335.242 102.404 335.242 102.116C335.242 101.825 335.352 101.578 335.572 101.376C335.792 101.17 336.055 101.067 336.361 101.067C336.67 101.067 336.932 101.17 337.149 101.376C337.369 101.578 337.479 101.825 337.479 102.116C337.479 102.404 337.369 102.65 337.149 102.856C336.932 103.059 336.67 103.16 336.361 103.16ZM342.871 112.663C342.072 112.663 341.38 112.487 340.794 112.135C340.208 111.784 339.753 111.292 339.43 110.66C339.111 110.028 338.951 109.289 338.951 108.444C338.951 107.599 339.111 106.858 339.43 106.223C339.753 105.587 340.208 105.094 340.794 104.742C341.38 104.39 342.072 104.215 342.871 104.215C343.67 104.215 344.363 104.39 344.949 104.742C345.535 105.094 345.987 105.587 346.307 106.223C346.63 106.858 346.792 107.599 346.792 108.444C346.792 109.289 346.63 110.028 346.307 110.66C345.987 111.292 345.535 111.784 344.949 112.135C344.363 112.487 343.67 112.663 342.871 112.663ZM342.882 111.118C343.315 111.118 343.677 110.999 343.968 110.761C344.26 110.52 344.476 110.197 344.618 109.792C344.764 109.387 344.837 108.936 344.837 108.439C344.837 107.938 344.764 107.485 344.618 107.08C344.476 106.672 344.26 106.347 343.968 106.106C343.677 105.864 343.315 105.743 342.882 105.743C342.438 105.743 342.069 105.864 341.774 106.106C341.483 106.347 341.264 106.672 341.119 107.08C340.977 107.485 340.906 107.938 340.906 108.439C340.906 108.936 340.977 109.387 341.119 109.792C341.264 110.197 341.483 110.52 341.774 110.761C342.069 110.999 342.438 111.118 342.882 111.118ZM350.357 107.709V112.503H348.428V104.321H350.271V105.711H350.367C350.555 105.253 350.855 104.889 351.267 104.619C351.683 104.35 352.196 104.215 352.807 104.215C353.371 104.215 353.863 104.335 354.282 104.577C354.705 104.818 355.032 105.168 355.262 105.626C355.497 106.084 355.612 106.64 355.609 107.293V112.503H353.68V107.592C353.68 107.045 353.538 106.617 353.254 106.308C352.974 105.999 352.585 105.845 352.088 105.845C351.75 105.845 351.45 105.919 351.188 106.068C350.928 106.214 350.724 106.425 350.575 106.702C350.429 106.979 350.357 107.315 350.357 107.709Z" fill="#3A81D2"/>
<mask id="mask1_129_6138" style="mask-type:alpha" maskUnits="userSpaceOnUse" x="200" y="92" width="31" height="31">
<rect x="200.703" y="92.503" width="30" height="30" fill="#D9D9D9"/>
</mask>
<g mask="url(#mask1_129_6138)">
<path fill-rule="evenodd" clip-rule="evenodd" d="M224.492 95.0201V94.8206V92.9577C224.487 92.8765 224.506 92.7956 224.545 92.7244C224.585 92.6532 224.644 92.5947 224.715 92.5555C224.88 92.4624 225.05 92.5011 225.201 92.6091C225.82 93.0487 226.439 93.4883 227.057 93.9279L227.155 93.9975L227.155 93.9975L227.155 93.9975L227.155 93.9975C227.667 94.3609 228.179 94.7239 228.695 95.0819C228.754 95.1223 228.803 95.1768 228.836 95.2405C228.87 95.3043 228.887 95.3754 228.886 95.4474C228.885 95.5194 228.867 95.5901 228.832 95.6531C228.797 95.7162 228.748 95.7697 228.687 95.8089C228.383 96.0214 228.081 96.2384 227.779 96.4555L227.779 96.4555L227.779 96.4556C227.552 96.619 227.325 96.7825 227.096 96.9439C226.69 97.2308 226.282 97.5157 225.874 97.8007C225.642 97.9628 225.41 98.1249 225.178 98.2874C225.122 98.3309 225.056 98.3598 224.986 98.3715C224.916 98.3832 224.845 98.3774 224.777 98.3545C224.71 98.3316 224.65 98.2924 224.602 98.2405C224.553 98.1885 224.519 98.1253 224.501 98.0567L224.494 95.7292H219.628C219.551 95.7292 219.478 95.6988 219.424 95.6447C219.369 95.5905 219.339 95.5172 219.339 95.4407C219.339 95.3641 219.369 95.2908 219.424 95.2367C219.478 95.1826 219.551 95.1522 219.628 95.1522H224.492L224.492 95.0201ZM223.222 106.907L223.222 106.907L223.222 106.907L223.222 106.907L223.222 106.907C223.42 107.061 223.619 107.214 223.817 107.37C224.036 107.542 224.079 107.937 223.954 108.2C223.843 108.441 223.742 108.688 223.641 108.934C223.583 109.076 223.525 109.217 223.465 109.359C223.41 109.491 223.355 109.623 223.3 109.756C223.162 110.092 223.023 110.429 222.871 110.76C222.712 111.104 222.47 111.224 222.092 111.172C221.622 111.108 221.153 111.036 220.684 110.963L220.584 110.948C220.526 110.935 220.466 110.938 220.41 110.956C220.354 110.974 220.303 111.007 220.264 111.052C220.069 111.251 219.866 111.443 219.663 111.636C219.547 111.746 219.432 111.855 219.317 111.967C219.28 112.001 219.258 112.049 219.256 112.1C219.287 112.391 219.325 112.682 219.365 112.972C219.378 113.062 219.391 113.151 219.405 113.24L219.405 113.24C219.438 113.458 219.471 113.675 219.491 113.894C219.514 114.149 219.248 114.462 218.972 114.561C218.769 114.634 218.57 114.714 218.37 114.795C218.255 114.841 218.139 114.888 218.023 114.933C217.849 115.001 217.674 115.069 217.499 115.136C217.265 115.226 217.032 115.315 216.8 115.407C216.738 115.432 216.678 115.462 216.617 115.491L216.617 115.491L216.617 115.491L216.617 115.491L216.617 115.491C216.537 115.531 216.456 115.571 216.372 115.598C216.077 115.694 215.789 115.665 215.531 115.311L215.427 115.17C215.143 114.781 214.858 114.394 214.564 114.009C214.523 113.965 214.465 113.94 214.405 113.938C214.206 113.935 214.007 113.935 213.808 113.936H213.808H213.808H213.808H213.808C213.574 113.936 213.339 113.937 213.105 113.931C213.052 113.927 212.999 113.937 212.952 113.96C212.905 113.984 212.865 114.019 212.836 114.064C212.721 114.213 212.605 114.362 212.489 114.51L212.489 114.51L212.489 114.511C212.285 114.772 212.081 115.034 211.883 115.3C211.788 115.436 211.648 115.534 211.488 115.576C211.327 115.619 211.157 115.604 211.007 115.533C210.54 115.323 210.063 115.127 209.587 114.932L209.587 114.932C209.364 114.84 209.142 114.748 208.92 114.655L208.868 114.634C208.713 114.569 208.555 114.504 208.406 114.43C208.109 114.289 207.956 114.062 207.98 113.719C207.996 113.623 208.013 113.527 208.029 113.431L208.03 113.43L208.03 113.43L208.03 113.43C208.08 113.137 208.13 112.844 208.175 112.551C208.204 112.358 208.218 112.164 208.232 111.969L208.232 111.969C208.227 111.929 208.209 111.892 208.179 111.864C207.848 111.535 207.515 111.205 207.179 110.875C207.163 110.86 207.144 110.848 207.123 110.841C207.102 110.833 207.08 110.83 207.058 110.831C206.822 110.859 206.586 110.89 206.349 110.92L206.349 110.921L206.349 110.921L206.348 110.921L206.348 110.921C206.025 110.963 205.702 111.004 205.379 111.041C205.038 111.083 204.779 110.931 204.646 110.588C204.558 110.361 204.463 110.137 204.368 109.912L204.368 109.912C204.297 109.744 204.225 109.576 204.157 109.406C203.946 108.877 203.739 108.347 203.534 107.815C203.463 107.633 203.605 107.305 203.806 107.155C204.246 106.831 204.685 106.506 205.125 106.182C205.161 106.156 205.19 106.121 205.209 106.081C205.227 106.04 205.234 105.995 205.229 105.951C205.227 105.715 205.231 105.48 205.235 105.244C205.238 105.049 205.241 104.854 205.241 104.659C205.241 104.619 205.233 104.579 205.217 104.542C205.201 104.504 205.179 104.47 205.15 104.442C204.713 104.092 204.269 103.749 203.825 103.41C203.523 103.179 203.539 102.84 203.645 102.578C203.805 102.172 203.976 101.77 204.147 101.367L204.248 101.131C204.279 101.058 204.31 100.985 204.341 100.912L204.341 100.912C204.482 100.577 204.624 100.242 204.779 99.9134C204.841 99.7938 204.939 99.6967 205.059 99.6355C205.179 99.5743 205.315 99.5521 205.448 99.5721C205.701 99.6091 205.952 99.6476 206.204 99.686L206.205 99.686C206.525 99.735 206.846 99.784 207.169 99.8301C207.206 99.8325 207.242 99.8203 207.27 99.7963C207.612 99.4622 207.952 99.1259 208.288 98.7874C208.325 98.7532 208.346 98.7062 208.349 98.6563C208.326 98.4466 208.298 98.2407 208.269 98.0346L208.269 98.0346L208.269 98.0346L208.269 98.0346L208.269 98.0345L208.269 98.0343C208.258 97.9514 208.246 97.8684 208.235 97.7851C208.223 97.695 208.209 97.605 208.196 97.5151L208.196 97.5151L208.196 97.5151L208.196 97.5151L208.196 97.515L208.196 97.515C208.163 97.2973 208.131 97.0798 208.115 96.8611C208.093 96.5792 208.358 96.2989 208.682 96.177C208.961 96.0753 209.234 95.9627 209.508 95.85C209.645 95.7937 209.782 95.7374 209.919 95.6824C210.05 95.6296 210.181 95.575 210.311 95.5206L210.311 95.5206L210.311 95.5206L210.311 95.5206L210.311 95.5206C210.618 95.3924 210.924 95.2648 211.238 95.1606C211.546 95.0593 211.811 95.0939 212.041 95.4079C212.368 95.8541 212.699 96.297 213.034 96.7366C213.068 96.7762 213.116 96.8008 213.168 96.805C213.394 96.8074 213.621 96.8073 213.847 96.8072C214.09 96.8071 214.334 96.807 214.578 96.81C214.72 96.8118 214.777 96.7167 214.831 96.6265C214.85 96.5959 214.868 96.5659 214.888 96.5405C215.027 96.3729 215.157 96.198 215.286 96.0231C215.43 95.8289 215.574 95.6347 215.73 95.4508C216.068 95.0518 216.285 95.0749 216.768 95.2859C217.079 95.4222 217.392 95.5544 217.705 95.6865L217.705 95.6865L217.705 95.6865L217.705 95.6865L217.705 95.6866C217.932 95.7822 218.158 95.8778 218.384 95.975C218.439 95.9988 218.494 96.0224 218.548 96.046L218.549 96.0462L218.549 96.0462C218.802 96.1551 219.054 96.2639 219.299 96.3871C219.491 96.4828 219.624 96.6526 219.599 96.8817C219.564 97.2169 219.521 97.5514 219.477 97.8858L219.477 97.8859L219.477 97.8859L219.477 97.8859L219.477 97.886C219.456 98.0532 219.434 98.2204 219.414 98.3876C219.397 98.5187 219.382 98.6498 219.373 98.7816C219.374 98.816 219.388 98.8489 219.411 98.874C219.749 99.216 220.088 99.5581 220.431 99.8952C220.473 99.929 220.528 99.9447 220.582 99.9389C221.14 99.8672 221.698 99.7947 222.256 99.7122C222.514 99.6784 222.853 99.8771 222.947 100.124C223.026 100.328 223.11 100.53 223.194 100.731C223.245 100.853 223.296 100.975 223.346 101.098C223.416 101.27 223.483 101.442 223.551 101.615L223.551 101.615C223.585 101.702 223.619 101.788 223.653 101.874C223.688 101.965 223.725 102.056 223.761 102.147L223.761 102.147L223.761 102.147L223.761 102.147L223.761 102.148C223.851 102.375 223.942 102.604 224.025 102.828C224.141 103.142 224.032 103.437 223.756 103.637C223.315 103.954 222.879 104.284 222.445 104.613C222.404 104.655 222.38 104.711 222.379 104.77C222.369 105.214 222.364 105.659 222.364 106.104C222.368 106.184 222.403 106.26 222.461 106.315C222.713 106.515 222.967 106.711 223.222 106.907ZM208.326 105.073C208.169 108.469 210.837 110.852 213.75 110.87V110.871C214.475 110.879 215.194 110.744 215.866 110.472C216.538 110.2 217.149 109.797 217.665 109.287C218.18 108.778 218.589 108.171 218.868 107.501C219.146 106.832 219.29 106.115 219.289 105.39C219.29 103.949 218.723 102.565 217.711 101.539C216.699 100.513 215.323 99.9277 213.882 99.9092C212.468 99.8832 211.098 100.407 210.062 101.37C209.026 102.333 208.404 103.661 208.326 105.073ZM212.018 101.066C212.588 100.83 213.199 100.71 213.816 100.712C214.43 100.714 215.037 100.836 215.603 101.073C216.169 101.309 216.683 101.655 217.116 102.09C217.548 102.525 217.891 103.041 218.124 103.608C218.357 104.176 218.475 104.784 218.473 105.397C218.475 106.014 218.355 106.624 218.119 107.194C217.884 107.763 217.537 108.28 217.1 108.715C216.663 109.149 216.144 109.493 215.573 109.725C215.003 109.958 214.391 110.075 213.775 110.069C212.542 110.065 211.361 109.573 210.491 108.699C209.62 107.826 209.132 106.643 209.132 105.41C209.128 104.794 209.247 104.182 209.48 103.611C209.714 103.04 210.059 102.522 210.495 102.085C210.93 101.648 211.448 101.302 212.018 101.066ZM219.706 119.145V118.946V117.084C219.702 117.002 219.72 116.921 219.76 116.85C219.8 116.779 219.859 116.72 219.93 116.681C220.095 116.588 220.26 116.627 220.416 116.735L222.271 118.054L222.273 118.055C222.817 118.441 223.361 118.827 223.909 119.208C223.968 119.248 224.017 119.302 224.05 119.366C224.084 119.43 224.101 119.501 224.1 119.573C224.1 119.644 224.081 119.715 224.047 119.778C224.012 119.841 223.962 119.895 223.902 119.934C223.607 120.141 223.314 120.351 223.021 120.562L223.021 120.562C222.784 120.731 222.548 120.901 222.311 121.069C221.882 121.372 221.451 121.673 221.02 121.974L221.019 121.975C220.81 122.121 220.602 122.266 220.393 122.412C220.337 122.456 220.271 122.485 220.201 122.497C220.131 122.509 220.059 122.503 219.992 122.48C219.925 122.458 219.864 122.418 219.816 122.366C219.768 122.314 219.733 122.251 219.715 122.183L219.708 119.855H207.43C207.353 119.855 207.28 119.824 207.226 119.77C207.171 119.716 207.141 119.643 207.141 119.566C207.141 119.49 207.171 119.416 207.226 119.362C207.28 119.308 207.353 119.278 207.43 119.278H219.706L219.706 119.145Z" fill="url(#paint1_linear_129_6138)"/>
</g>
<rect x="189.078" y="84.9666" width="179.679" height="45.0727" rx="22.5364" stroke="#E1EDFB"/>
<rect x="354.5" y="353.5" width="192" height="41" rx="20.5" fill="#E1EEFD"/>
<path d="M415.723 371.09C415.674 370.625 415.464 370.262 415.095 370.003C414.729 369.744 414.253 369.614 413.667 369.614C413.255 369.614 412.902 369.676 412.607 369.801C412.313 369.925 412.087 370.094 411.931 370.307C411.775 370.52 411.695 370.763 411.691 371.037C411.691 371.264 411.743 371.461 411.846 371.628C411.952 371.795 412.096 371.937 412.277 372.054C412.458 372.168 412.659 372.263 412.879 372.342C413.099 372.42 413.321 372.485 413.545 372.539L414.567 372.794C414.979 372.89 415.375 373.02 415.755 373.183C416.139 373.347 416.482 373.553 416.783 373.801C417.089 374.05 417.33 374.35 417.508 374.701C417.685 375.053 417.774 375.465 417.774 375.937C417.774 376.576 417.611 377.139 417.284 377.626C416.957 378.109 416.485 378.487 415.867 378.76C415.253 379.03 414.509 379.165 413.635 379.165C412.787 379.165 412.05 379.034 411.425 378.771C410.803 378.508 410.317 378.125 409.965 377.62C409.617 377.116 409.429 376.502 409.401 375.777H411.345C411.373 376.157 411.49 376.473 411.696 376.725C411.902 376.978 412.17 377.166 412.501 377.29C412.835 377.414 413.207 377.477 413.619 377.477C414.049 377.477 414.425 377.413 414.749 377.285C415.075 377.153 415.331 376.972 415.516 376.741C415.7 376.507 415.794 376.234 415.798 375.921C415.794 375.637 415.711 375.403 415.548 375.218C415.384 375.03 415.155 374.874 414.86 374.749C414.569 374.621 414.228 374.508 413.838 374.408L412.597 374.089C411.698 373.858 410.988 373.508 410.466 373.039C409.947 372.567 409.688 371.94 409.688 371.159C409.688 370.516 409.862 369.953 410.21 369.471C410.562 368.988 411.039 368.613 411.643 368.347C412.247 368.077 412.93 367.942 413.694 367.942C414.468 367.942 415.146 368.077 415.729 368.347C416.315 368.613 416.775 368.984 417.108 369.46C417.442 369.932 417.614 370.475 417.625 371.09H415.723ZM424.666 375.559V370.818H426.594V379H424.724V377.546H424.639C424.454 378.004 424.151 378.379 423.728 378.67C423.309 378.961 422.792 379.107 422.178 379.107C421.642 379.107 421.168 378.988 420.756 378.75C420.347 378.508 420.028 378.158 419.797 377.7C419.566 377.239 419.451 376.681 419.451 376.028V370.818H421.379V375.729C421.379 376.248 421.521 376.66 421.805 376.965C422.089 377.271 422.462 377.423 422.924 377.423C423.208 377.423 423.483 377.354 423.749 377.216C424.016 377.077 424.234 376.871 424.405 376.598C424.579 376.321 424.666 375.974 424.666 375.559ZM428.577 382.068V370.818H430.473V372.171H430.585C430.684 371.972 430.825 371.761 431.006 371.537C431.187 371.31 431.432 371.116 431.741 370.957C432.05 370.793 432.444 370.712 432.923 370.712C433.555 370.712 434.125 370.873 434.633 371.196C435.145 371.516 435.549 371.99 435.848 372.619C436.15 373.244 436.3 374.011 436.3 374.92C436.3 375.818 436.153 376.582 435.858 377.21C435.564 377.839 435.162 378.318 434.654 378.648C434.147 378.979 433.571 379.144 432.929 379.144C432.46 379.144 432.071 379.066 431.762 378.909C431.453 378.753 431.205 378.565 431.016 378.345C430.832 378.121 430.688 377.91 430.585 377.711H430.505V382.068H428.577ZM430.468 374.909C430.468 375.438 430.542 375.902 430.691 376.299C430.844 376.697 431.063 377.008 431.347 377.232C431.634 377.452 431.982 377.562 432.391 377.562C432.817 377.562 433.174 377.448 433.461 377.221C433.749 376.99 433.966 376.676 434.111 376.278C434.26 375.877 434.335 375.42 434.335 374.909C434.335 374.401 434.262 373.95 434.116 373.556C433.971 373.162 433.754 372.853 433.467 372.629C433.179 372.406 432.82 372.294 432.391 372.294C431.979 372.294 431.629 372.402 431.341 372.619C431.054 372.835 430.835 373.139 430.686 373.529C430.54 373.92 430.468 374.38 430.468 374.909ZM437.952 382.068V370.818H439.848V372.171H439.96C440.059 371.972 440.2 371.761 440.381 371.537C440.562 371.31 440.807 371.116 441.116 370.957C441.425 370.793 441.819 370.712 442.298 370.712C442.93 370.712 443.5 370.873 444.008 371.196C444.52 371.516 444.924 371.99 445.223 372.619C445.525 373.244 445.675 374.011 445.675 374.92C445.675 375.818 445.528 376.582 445.233 377.21C444.939 377.839 444.537 378.318 444.029 378.648C443.522 378.979 442.946 379.144 442.304 379.144C441.835 379.144 441.446 379.066 441.137 378.909C440.828 378.753 440.58 378.565 440.391 378.345C440.207 378.121 440.063 377.91 439.96 377.711H439.88V382.068H437.952ZM439.843 374.909C439.843 375.438 439.917 375.902 440.066 376.299C440.219 376.697 440.438 377.008 440.722 377.232C441.009 377.452 441.357 377.562 441.766 377.562C442.192 377.562 442.549 377.448 442.836 377.221C443.124 376.99 443.341 376.676 443.486 376.278C443.635 375.877 443.71 375.42 443.71 374.909C443.71 374.401 443.637 373.95 443.491 373.556C443.346 373.162 443.129 372.853 442.842 372.629C442.554 372.406 442.195 372.294 441.766 372.294C441.354 372.294 441.004 372.402 440.716 372.619C440.429 372.835 440.21 373.139 440.061 373.529C439.915 373.92 439.843 374.38 439.843 374.909ZM450.896 379.16C450.097 379.16 449.404 378.984 448.818 378.632C448.232 378.281 447.778 377.789 447.455 377.157C447.135 376.525 446.975 375.786 446.975 374.941C446.975 374.096 447.135 373.355 447.455 372.72C447.778 372.084 448.232 371.591 448.818 371.239C449.404 370.887 450.097 370.712 450.896 370.712C451.695 370.712 452.387 370.887 452.973 371.239C453.559 371.591 454.012 372.084 454.331 372.72C454.654 373.355 454.816 374.096 454.816 374.941C454.816 375.786 454.654 376.525 454.331 377.157C454.012 377.789 453.559 378.281 452.973 378.632C452.387 378.984 451.695 379.16 450.896 379.16ZM450.906 377.615C451.339 377.615 451.702 377.496 451.993 377.258C452.284 377.017 452.501 376.694 452.643 376.289C452.788 375.884 452.861 375.433 452.861 374.936C452.861 374.435 452.788 373.982 452.643 373.577C452.501 373.169 452.284 372.844 451.993 372.603C451.702 372.361 451.339 372.24 450.906 372.24C450.462 372.24 450.093 372.361 449.798 372.603C449.507 372.844 449.289 373.169 449.143 373.577C449.001 373.982 448.93 374.435 448.93 374.936C448.93 375.433 449.001 375.884 449.143 376.289C449.289 376.694 449.507 377.017 449.798 377.258C450.093 377.496 450.462 377.615 450.906 377.615ZM456.453 379V370.818H458.322V372.182H458.408C458.557 371.71 458.812 371.346 459.175 371.09C459.54 370.831 459.958 370.701 460.426 370.701C460.533 370.701 460.652 370.706 460.783 370.717C460.918 370.724 461.03 370.737 461.119 370.754V372.528C461.037 372.5 460.908 372.475 460.73 372.453C460.556 372.429 460.387 372.416 460.224 372.416C459.872 372.416 459.556 372.493 459.276 372.645C458.999 372.794 458.78 373.002 458.621 373.268C458.461 373.535 458.381 373.842 458.381 374.19V379H456.453ZM466.925 370.818V372.31H462.222V370.818H466.925ZM463.383 368.858H465.311V376.539C465.311 376.798 465.35 376.997 465.428 377.136C465.51 377.271 465.616 377.363 465.748 377.413C465.879 377.462 466.025 377.487 466.185 377.487C466.305 377.487 466.415 377.478 466.515 377.461C466.618 377.443 466.696 377.427 466.749 377.413L467.074 378.92C466.971 378.956 466.824 378.995 466.632 379.037C466.444 379.08 466.213 379.105 465.94 379.112C465.457 379.126 465.022 379.053 464.634 378.893C464.247 378.73 463.94 378.478 463.713 378.137C463.489 377.796 463.379 377.37 463.383 376.859V368.858ZM472.344 379V368.091H476.434C477.273 368.091 477.976 368.247 478.544 368.56C479.116 368.872 479.547 369.302 479.838 369.849C480.133 370.392 480.28 371.01 480.28 371.702C480.28 372.402 480.133 373.023 479.838 373.567C479.544 374.11 479.108 374.538 478.533 374.85C477.958 375.159 477.249 375.314 476.408 375.314H473.697V373.689H476.142C476.632 373.689 477.033 373.604 477.345 373.434C477.658 373.263 477.889 373.029 478.038 372.73C478.191 372.432 478.267 372.089 478.267 371.702C478.267 371.315 478.191 370.974 478.038 370.68C477.889 370.385 477.656 370.156 477.34 369.993C477.028 369.826 476.624 369.742 476.131 369.742H474.32V379H472.344ZM481.912 379V370.818H483.781V372.182H483.867C484.016 371.71 484.271 371.346 484.634 371.09C484.999 370.831 485.417 370.701 485.885 370.701C485.992 370.701 486.111 370.706 486.242 370.717C486.377 370.724 486.489 370.737 486.578 370.754V372.528C486.496 372.5 486.367 372.475 486.189 372.453C486.015 372.429 485.846 372.416 485.683 372.416C485.331 372.416 485.015 372.493 484.735 372.645C484.458 372.794 484.239 373.002 484.08 373.268C483.92 373.535 483.84 373.842 483.84 374.19V379H481.912ZM491.091 379.16C490.292 379.16 489.599 378.984 489.013 378.632C488.428 378.281 487.973 377.789 487.65 377.157C487.33 376.525 487.17 375.786 487.17 374.941C487.17 374.096 487.33 373.355 487.65 372.72C487.973 372.084 488.428 371.591 489.013 371.239C489.599 370.887 490.292 370.712 491.091 370.712C491.89 370.712 492.582 370.887 493.168 371.239C493.754 371.591 494.207 372.084 494.527 372.72C494.85 373.355 495.011 374.096 495.011 374.941C495.011 375.786 494.85 376.525 494.527 377.157C494.207 377.789 493.754 378.281 493.168 378.632C492.582 378.984 491.89 379.16 491.091 379.16ZM491.102 377.615C491.535 377.615 491.897 377.496 492.188 377.258C492.479 377.017 492.696 376.694 492.838 376.289C492.984 375.884 493.056 375.433 493.056 374.936C493.056 374.435 492.984 373.982 492.838 373.577C492.696 373.169 492.479 372.844 492.188 372.603C491.897 372.361 491.535 372.24 491.102 372.24C490.658 372.24 490.288 372.361 489.994 372.603C489.702 372.844 489.484 373.169 489.338 373.577C489.196 373.982 489.125 374.435 489.125 374.936C489.125 375.433 489.196 375.884 489.338 376.289C489.484 376.694 489.702 377.017 489.994 377.258C490.288 377.496 490.658 377.615 491.102 377.615ZM500.206 382.239C499.514 382.239 498.919 382.145 498.422 381.956C497.925 381.772 497.525 381.523 497.223 381.211C496.921 380.898 496.712 380.552 496.595 380.172L498.331 379.751C498.409 379.911 498.523 380.069 498.672 380.225C498.821 380.385 499.022 380.516 499.274 380.619C499.53 380.726 499.851 380.779 500.238 380.779C500.785 380.779 501.238 380.646 501.597 380.38C501.955 380.117 502.134 379.684 502.134 379.08V377.53H502.039C501.939 377.729 501.794 377.933 501.602 378.142C501.414 378.352 501.163 378.528 500.851 378.67C500.542 378.812 500.153 378.883 499.684 378.883C499.056 378.883 498.486 378.735 497.974 378.441C497.467 378.142 497.062 377.699 496.76 377.109C496.462 376.516 496.312 375.774 496.312 374.882C496.312 373.984 496.462 373.226 496.76 372.608C497.062 371.987 497.468 371.516 497.98 371.196C498.491 370.873 499.061 370.712 499.69 370.712C500.169 370.712 500.563 370.793 500.872 370.957C501.185 371.116 501.433 371.31 501.618 371.537C501.802 371.761 501.943 371.972 502.039 372.171H502.145V370.818H504.047V379.133C504.047 379.833 503.88 380.412 503.546 380.87C503.212 381.328 502.756 381.67 502.177 381.898C501.598 382.125 500.941 382.239 500.206 382.239ZM500.222 377.37C500.631 377.37 500.979 377.271 501.266 377.072C501.554 376.873 501.772 376.587 501.921 376.214C502.071 375.841 502.145 375.394 502.145 374.872C502.145 374.357 502.071 373.906 501.921 373.519C501.776 373.132 501.559 372.832 501.272 372.619C500.987 372.402 500.638 372.294 500.222 372.294C499.793 372.294 499.434 372.406 499.146 372.629C498.859 372.853 498.642 373.16 498.496 373.551C498.351 373.938 498.278 374.378 498.278 374.872C498.278 375.373 498.351 375.811 498.496 376.188C498.646 376.56 498.864 376.852 499.152 377.061C499.443 377.267 499.8 377.37 500.222 377.37ZM506.023 379V370.818H507.893V372.182H507.978C508.127 371.71 508.383 371.346 508.745 371.09C509.111 370.831 509.528 370.701 509.997 370.701C510.103 370.701 510.222 370.706 510.354 370.717C510.489 370.724 510.6 370.737 510.689 370.754V372.528C510.608 372.5 510.478 372.475 510.3 372.453C510.126 372.429 509.958 372.416 509.794 372.416C509.443 372.416 509.127 372.493 508.846 372.645C508.569 372.794 508.351 373.002 508.191 373.268C508.031 373.535 507.951 373.842 507.951 374.19V379H506.023ZM514.178 379.165C513.66 379.165 513.193 379.073 512.777 378.888C512.365 378.7 512.039 378.423 511.797 378.057C511.559 377.691 511.44 377.24 511.44 376.704C511.44 376.243 511.525 375.861 511.696 375.559C511.866 375.257 512.099 375.016 512.394 374.835C512.688 374.653 513.021 374.517 513.39 374.424C513.763 374.328 514.148 374.259 514.546 374.217C515.025 374.167 515.414 374.123 515.712 374.083C516.011 374.041 516.227 373.977 516.362 373.892C516.501 373.803 516.57 373.666 516.57 373.482V373.45C516.57 373.048 516.451 372.738 516.213 372.517C515.975 372.297 515.632 372.187 515.185 372.187C514.713 372.187 514.338 372.29 514.061 372.496C513.788 372.702 513.603 372.945 513.507 373.226L511.707 372.97C511.849 372.473 512.083 372.058 512.41 371.724C512.736 371.386 513.136 371.134 513.608 370.967C514.081 370.797 514.603 370.712 515.174 370.712C515.568 370.712 515.961 370.758 516.351 370.85C516.742 370.942 517.099 371.095 517.422 371.308C517.745 371.518 518.005 371.804 518.2 372.166C518.399 372.528 518.498 372.981 518.498 373.524V379H516.644V377.876H516.581C516.463 378.103 516.298 378.316 516.085 378.515C515.876 378.711 515.611 378.869 515.291 378.989C514.975 379.107 514.604 379.165 514.178 379.165ZM514.679 377.748C515.066 377.748 515.402 377.672 515.686 377.519C515.97 377.363 516.188 377.157 516.341 376.901C516.497 376.646 516.575 376.367 516.575 376.065V375.101C516.515 375.151 516.412 375.197 516.266 375.239C516.124 375.282 515.964 375.319 515.787 375.351C515.609 375.383 515.434 375.412 515.259 375.436C515.085 375.461 514.935 375.483 514.807 375.5C514.519 375.539 514.262 375.603 514.034 375.692C513.807 375.781 513.628 375.905 513.496 376.065C513.365 376.221 513.299 376.424 513.299 376.672C513.299 377.027 513.429 377.295 513.688 377.477C513.947 377.658 514.278 377.748 514.679 377.748ZM520.437 379V370.818H522.28V372.208H522.376C522.546 371.74 522.829 371.374 523.223 371.111C523.617 370.845 524.088 370.712 524.634 370.712C525.188 370.712 525.655 370.847 526.035 371.116C526.419 371.383 526.689 371.747 526.845 372.208H526.93C527.111 371.754 527.417 371.392 527.847 371.122C528.28 370.848 528.793 370.712 529.386 370.712C530.139 370.712 530.753 370.95 531.229 371.425C531.705 371.901 531.943 372.596 531.943 373.508V379H530.009V373.806C530.009 373.299 529.874 372.928 529.604 372.693C529.334 372.455 529.004 372.336 528.614 372.336C528.148 372.336 527.784 372.482 527.522 372.773C527.262 373.061 527.133 373.435 527.133 373.897V379H525.242V373.727C525.242 373.304 525.114 372.967 524.858 372.714C524.606 372.462 524.276 372.336 523.867 372.336C523.59 372.336 523.338 372.407 523.111 372.549C522.884 372.688 522.703 372.885 522.568 373.141C522.433 373.393 522.365 373.687 522.365 374.025V379H520.437Z" fill="#3A81D2"/>
<mask id="mask2_129_6138" style="mask-type:alpha" maskUnits="userSpaceOnUse" x="366" y="359" width="31" height="30">
<rect x="366.281" y="359" width="30" height="30" fill="#D9D9D9"/>
</mask>
<g mask="url(#mask2_129_6138)">
<path fill-rule="evenodd" clip-rule="evenodd" d="M383.639 363.078C384.548 363.89 385.078 364.94 384.982 366.249C385.096 367.245 384.632 368.123 384.017 368.878C383.393 369.642 382.517 370.12 381.507 370.277C380.441 370.443 379.43 370.256 378.514 369.683C377.439 369.007 376.784 368.021 376.603 366.799C376.407 365.463 376.775 364.223 377.744 363.251C378.411 362.575 379.295 362.145 380.247 362.033C381.531 361.883 382.705 362.244 383.639 363.078ZM382.102 366.032C382.277 365.862 382.452 365.692 382.626 365.521C382.702 365.436 382.742 365.325 382.736 365.212C382.731 365.099 382.68 364.992 382.596 364.915C382.418 364.767 382.235 364.822 382.044 365.013C381.664 365.393 381.276 365.765 380.865 366.16C380.701 366.317 380.533 366.478 380.361 366.644C380.294 366.571 380.23 366.498 380.167 366.427C380.026 366.268 379.89 366.114 379.745 365.97C379.545 365.771 379.323 365.757 379.178 365.909C378.992 366.105 379.01 366.339 379.225 366.536C379.33 366.633 379.434 366.731 379.538 366.829C379.716 366.997 379.894 367.166 380.078 367.324C380.317 367.529 380.508 367.645 380.784 367.351C381.208 366.898 381.655 366.465 382.102 366.032ZM390.206 369.157C390.626 369.643 390.764 370.222 390.764 370.863C390.758 372.125 390.759 373.388 390.76 374.65C390.761 376.175 390.762 377.699 390.752 379.223C390.751 379.432 390.658 379.645 390.568 379.852C390.546 379.901 390.525 379.95 390.505 379.998C390.425 380.21 390.315 380.409 390.179 380.591C390.03 380.792 389.846 380.966 389.637 381.107C389.31 381.311 388.973 381.5 388.636 381.689C388.434 381.802 388.233 381.915 388.033 382.032C387.884 382.118 387.739 382.21 387.594 382.302C387.438 382.4 387.283 382.498 387.123 382.59C387.006 382.655 386.886 382.715 386.765 382.775C386.626 382.844 386.487 382.913 386.354 382.991C386.108 383.136 385.865 383.286 385.622 383.435C385.413 383.564 385.205 383.693 384.994 383.819C384.858 383.9 384.716 383.972 384.574 384.044C384.517 384.072 384.461 384.101 384.405 384.13C384.312 384.178 384.219 384.226 384.127 384.273C383.951 384.364 383.775 384.454 383.601 384.548C383.483 384.613 383.367 384.68 383.252 384.748C383.172 384.794 383.092 384.841 383.011 384.887C382.933 384.931 382.855 384.976 382.777 385.021C382.585 385.133 382.393 385.245 382.194 385.341C381.703 385.576 381.204 385.792 380.634 385.752C380.195 385.722 379.793 385.557 379.417 385.366C378.948 385.127 378.493 384.86 378.039 384.592C377.864 384.489 377.689 384.386 377.513 384.284C377.31 384.168 377.108 384.05 376.906 383.931C376.565 383.731 376.223 383.53 375.875 383.342C375.627 383.208 375.374 383.081 375.121 382.954C374.808 382.796 374.495 382.639 374.191 382.469C373.974 382.347 373.764 382.211 373.555 382.076C373.258 381.883 372.961 381.692 372.644 381.539C372.204 381.334 371.808 381.048 371.476 380.697C371.321 380.529 371.218 380.316 371.115 380.103C371.076 380.021 371.036 379.939 370.994 379.86C370.788 379.479 370.801 379.071 370.813 378.664C370.816 378.556 370.819 378.448 370.819 378.34C370.814 377.558 370.816 376.775 370.817 375.992C370.818 375.6 370.819 375.208 370.819 374.817H370.809C370.809 374.435 370.808 374.052 370.807 373.67C370.804 372.592 370.801 371.514 370.823 370.436C370.83 370.136 370.962 369.832 371.122 369.545C371.28 369.248 371.484 368.977 371.728 368.742C371.887 368.596 372.078 368.481 372.268 368.367C372.329 368.33 372.39 368.294 372.449 368.256C372.694 368.102 372.942 367.952 373.194 367.809C373.322 367.738 373.451 367.669 373.58 367.601C373.734 367.519 373.888 367.437 374.039 367.35C374.189 367.265 374.644 367.097 375.138 366.916C375.237 366.879 375.337 366.842 375.437 366.805C375.444 366.86 375.451 366.914 375.46 366.971C375.69 368.528 376.523 369.785 377.893 370.645C379.06 371.378 380.346 371.613 381.706 371.402C382.991 371.202 384.108 370.594 384.902 369.619C385.607 368.756 386.155 367.768 386.155 366.655C386.388 366.746 386.573 366.822 386.622 366.851C386.902 367.015 387.185 367.174 387.47 367.329C387.813 367.515 388.158 367.695 388.504 367.875L388.543 367.896C388.628 367.94 388.716 367.979 388.803 368.019C388.982 368.099 389.161 368.18 389.31 368.297C389.636 368.555 389.936 368.843 390.206 369.157ZM387.952 374.822C388.012 373.735 386.933 372.873 385.933 373.041V373.043C385.035 373.194 384.158 373.807 384.305 375.079C384.397 375.881 385.118 376.746 386.324 376.626C387.08 376.552 388.064 375.847 387.952 374.822ZM382.642 376.593C382.683 375.67 381.813 374.776 380.931 374.747V374.748C379.69 374.707 378.938 375.625 378.939 376.548C378.938 377.027 379.13 377.486 379.473 377.826C379.817 378.166 380.283 378.358 380.771 378.361C381.876 378.355 382.602 377.516 382.642 376.593ZM375.704 373.047C374.95 372.89 374.349 373.261 373.904 373.838C373.671 374.139 373.557 374.508 373.624 374.842C373.564 375.855 374.467 376.546 375.248 376.628C376.451 376.753 377.185 375.893 377.268 375.09C377.397 373.824 376.576 373.229 375.704 373.047ZM376.913 379.679C376.963 379.521 377.016 379.37 377.075 379.214V379.213C377.262 378.727 377.598 378.374 378.011 378.078C378.199 377.944 378.199 377.826 378.096 377.638C377.782 377.065 377.19 376.95 376.647 376.893C375.982 376.826 375.308 376.847 374.635 376.867C374.489 376.872 374.344 376.876 374.199 376.88C373.948 376.886 373.701 376.944 373.475 377.052C373.351 377.114 373.243 377.208 373.136 377.302C373.044 377.382 372.953 377.462 372.85 377.523C372.598 377.673 372.544 377.922 372.495 378.152C372.489 378.183 372.482 378.214 372.475 378.244C372.435 378.42 372.449 378.608 372.464 378.797C372.472 378.906 372.48 379.015 372.478 379.122C372.472 379.43 372.659 379.668 372.857 379.826C373.076 380.003 373.333 380.134 373.59 380.266C373.694 380.319 373.797 380.372 373.899 380.428C374.016 380.493 374.135 380.557 374.253 380.621C374.425 380.713 374.597 380.806 374.767 380.903C374.975 381.022 375.182 381.145 375.388 381.268C375.595 381.391 375.802 381.513 376.01 381.633C376.13 381.701 376.254 381.76 376.375 381.817C376.429 381.842 376.481 381.867 376.533 381.892C376.769 381.822 376.768 381.636 376.766 381.45C376.766 381.436 376.766 381.422 376.766 381.408C376.767 381.309 376.767 381.21 376.766 381.11C376.765 380.631 376.763 380.154 376.913 379.679ZM382.358 383.481C382.648 383.332 382.931 383.169 383.205 382.991L383.203 382.99C383.534 382.77 383.825 382.544 383.784 382.055C383.726 381.428 383.745 380.797 383.764 380.166C383.775 379.766 383.554 379.469 383.345 379.189C383.333 379.173 383.321 379.156 383.308 379.14C383.029 378.761 382.528 378.615 382.095 378.615C381.829 378.615 381.563 378.606 381.296 378.596C380.606 378.572 379.915 378.548 379.221 378.693C378.859 378.768 378.548 378.865 378.334 379.107C378.108 379.363 377.908 379.69 377.836 380.015C377.777 380.282 377.79 380.563 377.804 380.845C377.81 380.968 377.816 381.09 377.816 381.212H377.838C377.838 381.315 377.837 381.419 377.837 381.522C377.836 381.81 377.835 382.098 377.842 382.385C377.844 382.467 377.876 382.584 377.934 382.624C378.213 382.816 378.5 382.997 378.786 383.178C378.862 383.226 378.938 383.274 379.013 383.322C379.052 383.346 379.089 383.372 379.126 383.398C379.186 383.44 379.245 383.481 379.309 383.516C379.561 383.651 379.815 383.782 380.073 383.904C380.116 383.924 380.158 383.945 380.201 383.967C380.352 384.043 380.505 384.119 380.665 384.141C380.981 384.184 381.268 384.071 381.541 383.888C381.693 383.785 381.864 383.709 382.035 383.633C382.144 383.585 382.253 383.537 382.358 383.481ZM388.908 379.582C388.97 379.388 389.044 379.199 389.129 379.014L389.127 379.013C389.233 378.788 389.181 378.578 389.129 378.368C389.109 378.288 389.089 378.207 389.078 378.126C389.024 377.779 388.798 377.552 388.544 377.348C388.52 377.329 388.496 377.309 388.472 377.289C388.328 377.169 388.175 377.042 388.008 377.004C387.63 376.928 387.245 376.886 386.86 376.879C386.603 376.869 386.346 376.871 386.09 376.874C385.84 376.877 385.591 376.879 385.342 376.87C384.745 376.846 384.217 377.031 383.719 377.329C383.378 377.532 383.318 377.912 383.602 378.117C384.171 378.529 384.564 379.051 384.681 379.746C384.739 380.091 384.78 380.44 384.811 380.789C384.826 380.999 384.826 381.21 384.811 381.42C384.801 381.63 384.829 381.812 385.015 381.891C385.076 381.866 385.134 381.843 385.19 381.821C385.306 381.776 385.413 381.734 385.512 381.677C385.634 381.606 385.752 381.528 385.87 381.45C386.006 381.36 386.142 381.27 386.285 381.191C386.426 381.113 386.571 381.044 386.718 380.975C386.873 380.902 387.028 380.829 387.178 380.744C387.548 380.54 387.906 380.317 388.252 380.076C388.322 380.026 388.404 379.99 388.486 379.953C388.661 379.874 388.837 379.795 388.908 379.582Z" fill="url(#paint2_linear_129_6138)"/>
</g>
<rect x="354.5" y="353.5" width="192" height="41" rx="20.5" stroke="#E1EDFB"/>
</g>
<defs>
<filter id="filter0_d_129_6138" x="0.617188" y="28.3484" width="576.383" height="494.303" filterUnits="userSpaceOnUse" color-interpolation-filters="sRGB">
<feFlood flood-opacity="0" result="BackgroundImageFix"/>
<feColorMatrix in="SourceAlpha" type="matrix" values="0 0 0 0 0 0 0 0 0 0 0 0 0 0 0 0 0 0 127 0" result="hardAlpha"/>
<feOffset dy="4"/>
<feGaussianBlur stdDeviation="15"/>
<feComposite in2="hardAlpha" operator="out"/>
<feColorMatrix type="matrix" values="0 0 0 0 0 0 0 0 0 0.439216 0 0 0 0 0.941176 0 0 0 0.02 0"/>
<feBlend mode="normal" in2="BackgroundImageFix" result="effect1_dropShadow_129_6138"/>
<feBlend mode="normal" in="SourceGraphic" in2="effect1_dropShadow_129_6138" result="shape"/>
</filter>
<linearGradient id="paint0_linear_129_6138" x1="57.6573" y1="311.606" x2="57.778" y2="335.581" gradientUnits="userSpaceOnUse">
<stop stop-color="#0070F0" stop-opacity="0.46"/>
<stop offset="0.557292" stop-color="#0070F0" stop-opacity="0.55"/>
<stop offset="1" stop-color="#0070F0"/>
</linearGradient>
<linearGradient id="paint1_linear_129_6138" x1="216.289" y1="92.503" x2="216.464" y2="122.767" gradientUnits="userSpaceOnUse">
<stop stop-color="#0070F0" stop-opacity="0.46"/>
<stop offset="0.557292" stop-color="#0070F0" stop-opacity="0.55"/>
<stop offset="1" stop-color="#0070F0"/>
</linearGradient>
<linearGradient id="paint2_linear_129_6138" x1="380.853" y1="362" x2="380.993" y2="385.966" gradientUnits="userSpaceOnUse">
<stop stop-color="#0070F0" stop-opacity="0.46"/>
<stop offset="0.557292" stop-color="#0070F0" stop-opacity="0.55"/>
<stop offset="1" stop-color="#0070F0"/>
</linearGradient>
</defs>
</svg>
