<svg width="15" height="16" viewBox="0 0 15 16" fill="none" xmlns="http://www.w3.org/2000/svg">
<path d="M4.10136 0.498525C4.28823 0.575829 4.49271 0.62574 4.65855 0.736804C4.98141 0.953061 5.14333 1.27794 5.15605 1.66641C5.17855 2.33573 5.2309 3.00113 5.39037 3.65382C5.45495 3.919 5.53713 4.18027 5.60268 4.44447C5.70688 4.85154 5.60953 5.21019 5.35222 5.54093C4.93005 6.08402 4.52059 6.63591 4.10772 7.18781C4.09629 7.20912 4.0899 7.23278 4.08906 7.25696C4.08821 7.28113 4.09292 7.30519 4.10283 7.32725C4.94961 8.94478 6.13932 10.2374 7.73163 11.1465C7.87839 11.2292 8.01683 11.3167 8.16505 11.3911C8.1893 11.4013 8.21552 11.4059 8.24177 11.4045C8.26802 11.4031 8.29363 11.3959 8.3167 11.3833C8.8685 10.9723 9.42031 10.5613 9.9638 10.1386C10.1114 10.0176 10.2852 9.9329 10.4715 9.89135C10.6577 9.8498 10.8511 9.85253 11.0361 9.89933C11.4304 9.98984 11.8188 10.1239 12.2141 10.186C12.7233 10.2658 13.2414 10.3074 13.7555 10.3382C14.3572 10.3739 14.7936 10.6836 14.9491 11.237C14.9823 11.3593 14.9987 11.4855 14.998 11.6123C15.002 12.4867 15.002 13.3607 14.998 14.2343C14.998 14.9863 14.4687 15.5064 13.7213 15.4971C10.9495 15.4672 8.40182 14.6956 6.10361 13.1447C3.88025 11.6465 2.22777 9.65813 1.14666 7.20151C0.617312 6.00407 0.269741 4.73427 0.115449 3.43414C0.0699548 3.05251 0.0381567 2.66892 0 2.28631V1.55241C0.0836513 1.35964 0.146758 1.15219 0.256336 0.977521C0.438314 0.694234 0.735741 0.569969 1.05469 0.498047L4.10136 0.498525Z" fill="white"/>
</svg>
