<svg width="35" height="35" viewBox="0 0 35 35" fill="none" xmlns="http://www.w3.org/2000/svg">
<g clip-path="url(#clip0_687_2501)">
<path d="M24.0625 0C17.9288 0 13.125 2.88313 13.125 6.5625V10.3352C12.4192 10.2521 11.6885 10.2083 10.9375 10.2083C4.80375 10.2083 0 13.0915 0 16.7708V28.4375C0 32.1169 4.80375 35 10.9375 35C15.9192 35 20.0244 33.0983 21.3894 30.4121C22.26 30.539 23.1496 30.625 24.0625 30.625C30.1963 30.625 35 27.7419 35 24.0625V6.5625C35 2.88313 30.1963 0 24.0625 0ZM24.0625 2.91667C28.6533 2.91667 32.0833 4.84167 32.0833 6.5625C32.0833 8.28333 28.6533 10.2083 24.0625 10.2083C19.4717 10.2083 16.0417 8.28333 16.0417 6.5625C16.0417 4.84167 19.4717 2.91667 24.0625 2.91667ZM10.9375 13.125C15.5283 13.125 18.9583 15.05 18.9583 16.7708C18.9583 18.4917 15.5283 20.4167 10.9375 20.4167C6.34667 20.4167 2.91667 18.4917 2.91667 16.7708C2.91667 15.05 6.34667 13.125 10.9375 13.125ZM2.91667 21.2654C4.9 22.5415 7.73354 23.3333 10.9375 23.3333C14.1415 23.3333 16.975 22.5415 18.9583 21.2654V22.6042C18.9583 24.325 15.5283 26.25 10.9375 26.25C6.34667 26.25 2.91667 24.325 2.91667 22.6042V21.2654ZM10.9375 32.0833C6.34667 32.0833 2.91667 30.1583 2.91667 28.4375V27.0988C4.9 28.3748 7.73354 29.1667 10.9375 29.1667C14.1415 29.1667 16.975 28.3748 18.9583 27.0988V28.4375C18.9583 30.1583 15.5283 32.0833 10.9375 32.0833ZM24.0625 27.7083C23.3129 27.7083 22.5867 27.6398 21.875 27.5392V24.6517C22.5925 24.7362 23.3188 24.7917 24.0625 24.7917C27.2665 24.7917 30.1 23.9998 32.0833 22.7238V24.0625C32.0833 25.7833 28.6533 27.7083 24.0625 27.7083ZM24.0625 21.875C23.3129 21.875 22.5867 21.8065 21.875 21.7058V18.8183C22.5925 18.9029 23.3188 18.9583 24.0625 18.9583C27.2665 18.9583 30.1 18.1665 32.0833 16.8904V18.2292C32.0833 19.95 28.6533 21.875 24.0625 21.875ZM24.0625 16.0417C23.2721 16.0417 22.5079 15.9673 21.7612 15.8565C21.4725 14.5629 20.5815 13.4006 19.2515 12.4717C20.6981 12.8873 22.3227 13.1265 24.0625 13.1265C27.2665 13.1265 30.1 12.3346 32.0833 11.0585V12.3973C32.0833 14.1181 28.6533 16.0431 24.0625 16.0431V16.0417Z" fill="black"/>
</g>
<defs>
<clipPath id="clip0_687_2501">
<rect width="35" height="35" fill="white"/>
</clipPath>
</defs>
</svg>
