<svg width="35" height="35" viewBox="0 0 35 35" fill="none" xmlns="http://www.w3.org/2000/svg">
<g clip-path="url(#clip0_687_2494)">
<path d="M32.7899 16.0052L17.4993 25.181L2.20866 16.0052C1.877 15.8062 1.47988 15.7471 1.10465 15.8409C0.72942 15.9347 0.406824 16.1737 0.207829 16.5054C0.00883368 16.8371 -0.0502603 17.2342 0.0435469 17.6094C0.137354 17.9846 0.376379 18.3072 0.708037 18.5062L16.7497 28.1312C16.9765 28.2675 17.2361 28.3395 17.5007 28.3395C17.7654 28.3395 18.025 28.2675 18.2518 28.1312L34.2935 18.5062C34.6251 18.3072 34.8641 17.9846 34.958 17.6094C35.0518 17.2342 34.9927 16.8371 34.7937 16.5054C34.5947 16.1737 34.2721 15.9347 33.8968 15.8409C33.5216 15.7471 33.1245 15.8062 32.7928 16.0052H32.7899Z" fill="black"/>
<path d="M32.7899 22.6668L17.4993 31.8412L2.20866 22.6668C2.04444 22.5683 1.86242 22.5031 1.67299 22.4749C1.48356 22.4467 1.29044 22.4561 1.10464 22.5025C0.91885 22.549 0.744024 22.6316 0.590147 22.7456C0.43627 22.8596 0.306357 23.0028 0.207825 23.167C0.109292 23.3312 0.0440702 23.5133 0.0158826 23.7027C-0.0123049 23.8921 -0.00290605 24.0852 0.0435426 24.271C0.13735 24.6463 0.376374 24.9689 0.708033 25.1679L16.7497 34.7929C16.9765 34.9291 17.2361 35.0011 17.5007 35.0011C17.7653 35.0011 18.025 34.9291 18.2518 34.7929L34.2934 25.1679C34.6251 24.9689 34.8641 24.6463 34.9579 24.271C35.0518 23.8958 34.9927 23.4987 34.7937 23.167C34.5947 22.8354 34.2721 22.5963 33.8968 22.5025C33.5216 22.4087 33.1245 22.4678 32.7928 22.6668H32.7899Z" fill="black"/>
<path d="M17.4995 21.544C16.7129 21.5436 15.9411 21.3293 15.2668 20.9242L0.70683 12.1873C0.491212 12.0577 0.312804 11.8745 0.188948 11.6555C0.0650916 11.4365 0 11.1891 0 10.9375C0 10.6859 0.0650916 10.4386 0.188948 10.2196C0.312804 10.0006 0.491212 9.8174 0.70683 9.68775L15.2668 0.950874C15.9411 0.545791 16.7129 0.331787 17.4995 0.331787C18.2862 0.331787 19.058 0.545791 19.7322 0.950874L34.2922 9.68775C34.5079 9.8174 34.6863 10.0006 34.8101 10.2196C34.934 10.4386 34.9991 10.6859 34.9991 10.9375C34.9991 11.1891 34.934 11.4365 34.8101 11.6555C34.6863 11.8745 34.5079 12.0577 34.2922 12.1873L19.7322 20.9242C19.0579 21.3293 18.2862 21.5436 17.4995 21.544ZM4.29287 10.9375L16.7704 18.4232C16.9907 18.555 17.2427 18.6246 17.4995 18.6246C17.7563 18.6246 18.0083 18.555 18.2287 18.4232L30.7062 10.9375L18.2287 3.45192C18.0083 3.32009 17.7563 3.25047 17.4995 3.25047C17.2427 3.25047 16.9907 3.32009 16.7704 3.45192L4.29287 10.9375Z" fill="black"/>
</g>
<defs>
<clipPath id="clip0_687_2494">
<rect width="35" height="35" fill="white"/>
</clipPath>
</defs>
</svg>
