<svg width="14" height="8" viewBox="0 0 14 8" fill="none" xmlns="http://www.w3.org/2000/svg">
<path d="M6.97726 7.89844C3.85677 7.73101 1.53514 6.16365 0.143962 2.99585C-0.246024 2.10757 0.191323 1.14643 1.03424 0.948925C1.5825 0.820262 2.14395 1.14576 2.40444 1.76335C2.86907 2.86518 3.5729 3.72171 4.51205 4.33529C6.35886 5.54205 8.69398 5.26634 10.3328 3.65688C10.8765 3.12284 11.2905 2.48453 11.5902 1.74864C11.9347 0.902138 12.8289 0.645479 13.5015 1.19088C13.97 1.57052 14.1343 2.30307 13.8822 2.92934C13.4958 3.88847 12.9724 4.744 12.2935 5.47622C11.1184 6.74347 9.73025 7.53952 8.10585 7.80119C7.73505 7.86101 7.36155 7.89276 6.97696 7.89844L6.97726 7.89844Z" fill="#1697D2"/>
</svg>
